<?xml version="1.0" encoding="UTF-8" standalone="no"?>
<!-- Created with Inkscape (http://www.inkscape.org/) -->

<svg
   version="1.1"
   id="svg2"
   width="519.06506"
   height="360.24472"
   viewBox="0 0 519.06508 360.24472"
   sodipodi:docname="hvidHjerte.svg"
   inkscape:export-filename="..\Desktop\MedTekIcon2.png"
   inkscape:export-xdpi="4.9816217"
   inkscape:export-ydpi="4.9816217"
   inkscape:version="1.2 (dc2aedaf03, 2022-05-15)"
   xmlns:inkscape="http://www.inkscape.org/namespaces/inkscape"
   xmlns:sodipodi="http://sodipodi.sourceforge.net/DTD/sodipodi-0.dtd"
   xmlns="http://www.w3.org/2000/svg"
   xmlns:svg="http://www.w3.org/2000/svg">
  <defs
     id="defs6" />
  <sodipodi:namedview
     id="namedview4"
     pagecolor="#ffffff"
     bordercolor="#000000"
     borderopacity="0.25"
     inkscape:showpageshadow="2"
     inkscape:pageopacity="0.0"
     inkscape:pagecheckerboard="0"
     inkscape:deskcolor="#d1d1d1"
     showgrid="false"
     inkscape:zoom="0.65555556"
     inkscape:cx="569.74576"
     inkscape:cy="178.47458"
     inkscape:window-width="1920"
     inkscape:window-height="1137"
     inkscape:window-x="1912"
     inkscape:window-y="-8"
     inkscape:window-maximized="1"
     inkscape:current-layer="g8" />
  <g
     inkscape:groupmode="layer"
     inkscape:label="Image"
     id="g8"
     transform="translate(-18.152777,-1.3117639)">
    <g
       id="g325"
       transform="translate(-677.28814)">
      <path
         style="fill:#d9aecd;stroke-width:1.33333"
         d="m 778.85874,360.8007 c 0,-0.3986 3.68533,-7.4486 8.18964,-15.66666 4.50429,-8.21807 11.92949,-21.84195 16.50042,-30.27528 4.57094,-8.43334 10.18559,-18.50974 12.47703,-22.39202 2.29143,-3.88226 4.16624,-7.38169 4.16624,-7.77649 0,-0.3948 3.51386,-6.8184 7.80861,-14.27465 4.29473,-7.45627 9.00047,-15.95684 10.4572,-18.89018 3.60932,-7.26786 24.81931,-45.9327 31.21268,-56.89929 2.85349,-4.89461 5.18817,-9.24576 5.18817,-9.66921 0,-0.42344 3.5307,-6.91876 7.84599,-14.43403 4.31531,-7.51528 8.19457,-16.06413 8.62063,-18.99747 0.42604,-2.93333 3.26737,-21.41272 6.31406,-41.0653 l 5.53946,-35.731972 7.01986,-12.934696 C 944.01462,-0.51516673 942.74929,1.5440519 947.22653,1.533854 l 3.70113,-0.00843 -5.56586,10.333333 c -3.06123,5.683333 -8.39215,15.433333 -11.84648,21.666667 -19.27479,34.781233 -23.83756,43.839957 -24.51283,48.666666 -0.41038,2.933334 -3.22376,21.23333 -6.25192,40.66667 l -5.50577,35.33333 -6.408,12 c -3.5244,6.6 -8.86127,16.19048 -11.85971,21.31217 -2.99842,5.1217 -5.45169,9.6856 -5.45169,10.142 0,0.45642 -3.08748,6.16594 -6.86105,12.68783 -13.13903,22.70827 -14.15034,25.2776 -12.98198,32.9822 0.57347,3.78169 3.24814,20.78391 5.9437,37.78269 l 4.90101,30.9069 -8.32112,15.75977 c -14.0084,26.53117 -16.16388,29.67883 -20.35331,29.72196 l -3.67274,0.0379 6.8967,-13 c 3.7932,-7.15 8.20795,-15.1 9.81058,-17.66667 7.9334,-12.70571 8.60574,-15.02381 7.20069,-24.82664 -2.82084,-19.68056 -8.0692,-50.62157 -8.95923,-52.81789 -0.7167,-1.76862 -2.03214,-0.20516 -5.60325,6.65969 -2.56667,4.93399 -6.54423,12.27403 -8.83904,16.3112 -2.2948,4.03717 -8.07603,14.54031 -12.84718,23.34031 -4.77115,8.8 -13.63652,25 -19.70082,36 -6.0643,11 -11.68306,21.34532 -12.48614,22.9896 -0.9833,2.01325 -2.6576,2.99298 -5.12682,3 -2.01666,0.005 -3.66666,-0.31572 -3.66666,-0.71432 z m 107.99999,-0.0739 c 0,-0.4392 2.05988,-4.54712 4.57751,-9.12872 l 4.57749,-8.33018 -1.88558,-19.71666 -1.8856,-19.71667 7.63978,-13.48796 c 4.20188,-7.41837 8.30082,-14.98795 9.10875,-16.82128 0.80793,-1.83333 5.15868,-9.73391 9.66831,-17.55684 4.50964,-7.82287 8.19934,-14.51915 8.19934,-14.88057 0,-0.36142 2.44468,-4.97127 5.43262,-10.24414 2.98794,-5.27286 8.77009,-15.67658 12.84922,-23.11937 4.07915,-7.4428 12.53187,-22.83236 18.78384,-34.19903 6.25196,-11.36666 13.26185,-24.26666 15.57752,-28.66666 2.31565,-4.4 9.2084,-17 15.31719,-28 6.10878,-11 14.98708,-27.200003 19.72968,-36.000003 4.7425,-8.8 9.0706,-16.6 9.618,-17.333333 0.5473,-0.733334 4.4716,-7.933334 8.7205,-16 4.249,-8.066667 8.7637,-16.166667 10.0327,-18 1.2689,-1.833334 4.0819,-6.933334 6.251,-11.333334 7.2798,-14.7671286 8.7132,-16.649098 12.6877,-16.658236 2.0167,-0.00464 3.6667,0.3685339 3.6667,0.8292677 0,0.4607338 -1.7866,3.9603053 -3.9702,7.7768253 l -3.9701,6.939127 3.3616,10.556508 c 1.8489,5.80608 4.4674,14.756508 5.819,19.889842 1.3516,5.133333 4.3685,15.758848 6.7042,23.612256 l 4.2469,14.278922 -4.9383,9.054411 c -13.0132,23.860147 -19.8856,35.920867 -21.6718,38.032637 -1.0754,1.27136 -5.1711,4.12649 -9.1016,6.34473 -8.2864,4.67655 -8.0402,3.38114 -4.984,26.22363 l 2.1693,16.21327 -6.646,12.4534 c -3.6553,6.84937 -9.5191,17.55341 -13.0308,23.78674 l -6.3848,11.33334 2.0593,7.33333 c 1.1326,4.03333 8.484,25.93333 16.3364,48.66667 7.8525,22.73333 16.8456,49.28333 19.9847,59 l 5.7075,17.66666 h -3.5702 c -2.9754,0 -3.8151,-0.83304 -5.04,-5 -0.8085,-2.75 -7.0068,-21.2 -13.7742,-41 -6.7674,-19.8 -15.4315,-45.27052 -19.2536,-56.60117 l -6.9493,-20.60116 -5.367,9.26783 c -2.9519,5.09732 -9.73964,17.36784 -15.08391,27.26784 -5.34428,9.9 -12.38069,22.71424 -15.63649,28.47609 -3.25579,5.76185 -5.61551,11.46185 -5.24382,12.66667 0.37168,1.20481 4.02487,11.76177 8.11818,23.45989 4.0933,11.69813 7.44237,21.48799 7.44237,21.75524 0,0.26724 -1.59348,0.29604 -3.54108,0.064 -3.91939,-0.46696 -3.07983,1.32356 -13.70415,-29.22676 l -6.30782,-18.1382 2.87869,-5.8618 c 1.58327,-3.22399 6.36347,-12.1618 10.62264,-19.8618 4.25917,-7.7 10.88245,-19.7 14.71839,-26.66667 3.83593,-6.96666 10.46226,-18.96666 14.7252,-26.66666 4.2628,-7.7 9.3176,-17 11.2327,-20.66667 1.9151,-3.66667 6.9733,-12.82013 11.2404,-20.34104 l 7.7584,-13.67437 -2.1218,-15.52467 c -1.1671,-8.53856 -2.3436,-15.74635 -2.6145,-16.01729 -1.19,-1.18998 -26.16,15.06093 -26.1889,17.04422 -0.06,4.10264 -5.3265,9.17982 -9.52221,9.17982 -5.67585,0 -11.04172,-5.62946 -9.91348,-10.40043 1.32676,-5.61045 5.81847,-8.65121 11.62819,-7.87196 5.32364,0.71405 3.48062,1.64792 37.2299,-18.86491 12.9536,-7.87317 16.5007,-10.6905 18.0111,-14.30559 1.0345,-2.4759 4.6408,-9.16412 8.0141,-14.86271 3.3732,-5.69859 7.6083,-13.265994 9.4113,-16.816455 3.774,-7.431787 3.5703,-9.281045 -3.6577,-33.192729 -2.2752,-7.526871 -5.2641,-17.515958 -6.6419,-22.197972 -1.3779,-4.682015 -2.7479,-8.75545 -3.0445,-9.052076 -0.576,-0.575935 -11.1624,17.858156 -21.573,37.564829 -3.4867,6.6 -6.8474,12.649893 -7.4683,13.444207 -1.1635,1.488412 -22.6549,40.764156 -26.20459,47.889126 -1.09605,2.2 -5.81203,10.64703 -10.47995,18.77116 -4.66792,8.12413 -8.48713,15.14773 -8.48713,15.60799 0,0.46026 -1.87481,4.01324 -4.16624,7.8955 -2.29144,3.88228 -8.08751,14.25868 -12.88016,23.05868 -4.79265,8.8 -13.50381,24.7 -19.35814,35.33334 -19.57063,35.54653 -19.65504,35.72922 -18.98344,41.08512 0.33896,2.70318 0.96277,24.86488 1.38624,49.24821 l 0.76996,44.33333 h -3.20966 c -4.33614,0 -4.82722,-3.59438 -5.00954,-36.66666 -0.0808,-14.66667 -0.53747,-31.71736 -1.01468,-37.89043 l -0.86767,-11.22375 -7.83069,14.51524 -7.8307,14.51524 1.63682,20.30454 1.63681,20.30454 -4.90267,8.07064 c -3.83265,6.30924 -5.60908,8.07064 -8.13944,8.07064 -1.78024,0 -3.2368,-0.35934 -3.2368,-0.79853 z M 1103.601,329.22869 c -2.9718,-4.24276 -2.5794,-9.79408 0.9244,-13.07724 2.4311,-2.27803 4.0357,-2.65752 8.4612,-2.00107 4.1317,0.6129 5.8982,0.28344 7.2567,-1.35338 0.9875,-1.18992 10.7857,-9.46282 21.7737,-18.38423 10.9879,-8.9214 21.8908,-17.86117 24.2284,-19.86617 3.4529,-2.9614 23.28,-35.24176 23.28,-37.90183 0,-0.40765 3.9868,-7.68473 8.8595,-16.17128 l 8.8595,-15.43011 -9.0698,-28.0923 c -11.5602,-35.80618 -22.16,-68.57066 -40.6286,-125.58577 -8.1214,-25.071725 -14.3622,-46.4689901 -13.9026,-47.6666657 0.511,-1.3315406 2.3627,-2.1732205 4.7812,-2.1732205 3.2823,0 3.8106,0.430179 3.1366,2.5538857 -0.8515,2.6826938 0.094,6.0412345 12.6081,44.7794475 4.2641,13.2 12.0043,37.2 17.2005,53.333333 5.1962,16.13333 14.7776,45.83333 21.2919,66 l 11.8443,36.66667 -5.6028,10.66666 c -5.4654,10.40528 -12.1458,22.56166 -26.9301,49.00515 -4.946,8.84657 -8.7981,14.04287 -12.0468,16.25039 -4.5684,3.10428 -10.0192,7.5273 -31.4294,25.50325 -5.301,4.45067 -11.5882,9.44152 -13.9715,11.0908 -3.1287,2.16503 -4.3333,4.02797 -4.3333,6.70123 0,4.93608 -3.7989,8.11585 -9.6961,8.11585 -3.4687,0 -5.4011,-0.83049 -6.895,-2.96335 z m -367.17652,-5.45592 c -5.30949,-5.65171 -3.07621,-13.37936 4.4358,-15.34888 3.26944,-0.85719 5.11062,-3.10101 10.09831,-12.30675 3.35492,-6.19214 11.39117,-20.85844 17.85833,-32.59177 6.46716,-11.73333 14.44151,-26.40916 17.72078,-32.61295 l 5.96228,-11.27961 -0.88611,-30.05372 c -0.48737,-16.52955 -1.19876,-31.67837 -1.58087,-33.66405 l -0.69473,-3.61032 -10.10955,3.66456 -10.10954,3.66457 -2.99415,13.35061 c -3.0592,13.64067 -5.23109,18.00659 -29.63283,59.56766 -4.54089,7.73404 -5.20734,9.84757 -4.65381,14.75856 0.47684,4.23056 0.0595,6.31838 -1.59336,7.97126 -3.41353,3.41352 -8.30689,4.1539 -11.89892,1.80031 -6.82868,-4.47433 -5.13325,-14.79787 2.86848,-17.46625 3.665,-1.2222 5.74523,-3.8823 13.11561,-16.7716 19.53823,-34.16843 21.82038,-38.73471 24.40884,-48.83895 1.46308,-5.71124 2.53855,-10.49809 2.38992,-10.63747 -0.14862,-0.13937 -5.37022,1.73911 -11.60356,4.17442 -6.23333,2.43529 -16.49494,6.32401 -22.80357,8.64158 -9.79895,3.59982 -11.74171,4.82619 -13.33333,8.41678 -2.4179,5.45457 -8.93534,7.60934 -13.65736,4.51536 -4.09641,-2.68408 -5.4544,-8.01772 -3.2222,-12.65559 1.64918,-3.42655 2.21894,-3.60544 11.70833,-3.67605 9.0934,-0.0677 11.91877,-0.85138 31.9748,-8.86918 12.1,-4.83721 28.3,-11.16737 36,-14.06702 l 14,-5.27208 6.15317,-10.52542 c 3.38426,-5.78892 10.51784,-18.62536 15.85243,-28.52536 5.33459,-9.899996 13.21566,-24.133563 17.51349,-31.630146 4.29783,-7.496581 7.81424,-14.000004 7.81424,-14.452048 0,-0.845317 13.85264,-25.594493 25.87864,-46.234851 5.93397,-10.1845699 7.25219,-11.6524316 10.47716,-11.666667 l 3.68912,-0.016284 -3.34792,6.6067937 c -1.84135,3.6337363 -6.65145,12.0548323 -10.68912,18.7135463 -4.03767,6.658714 -7.34121,12.405949 -7.34121,12.771634 0,0.365686 -4.2,8.082804 -9.33334,17.149154 -5.13333,9.066348 -9.33333,16.857978 -9.33333,17.314733 0,0.456755 -1.40432,3.06854 -3.12071,5.803968 -1.71638,2.735427 -7.51402,13.073504 -12.88364,22.973507 -5.36961,9.9 -13.04286,24 -17.05166,31.33333 l -7.28873,13.33333 1.43404,37.14003 1.43404,37.14003 -3.02658,4.85997 c -1.66461,2.67299 -6.21,10.85997 -10.10086,18.19331 -3.89087,7.33333 -9.31343,17.23333 -12.05012,22 -2.73671,4.76666 -9.22839,16.46666 -14.42598,26 -8.53302,15.65116 -9.37704,17.86825 -8.69685,22.8452 0.6104,4.46622 0.21807,6.04712 -2.06815,8.33333 -3.73744,3.73744 -9.60612,3.62035 -13.25572,-0.26447 z m 377.70702,-48.1868 c -1.8,-1.8 -3.2728,-4.8 -3.2728,-6.66667 0,-4.01077 4.2693,-8.72726 7.8999,-8.72726 1.741,0 3.9386,-2.466 6.8322,-7.66667 7.0384,-12.64985 26.51,-48.30084 32.2243,-59 2.9375,-5.5 5.9446,-10.74655 6.6825,-11.659 1.5818,-1.95611 1.4336,-2.69257 -4.8985,-24.341 -2.6813,-9.16667 -8.8,-30.16667 -13.5973,-46.66667 -4.7972,-16.499996 -11.9669,-40.94792 -15.9326,-54.328718 -3.9658,-13.380742 -7.2105,-24.766938 -7.2105,-25.302602 0,-0.535664 -3.6587,5.612261 -8.1304,13.662054 -4.4718,8.049795 -9.0781,16.246963 -10.2363,18.21593 -1.9979,3.396604 -1.6103,5.786492 7.5693,46.666666 17.3749,77.37741 17.6269,78.61627 16.3139,80.22159 -0.6892,0.8425 -3.9613,6.67879 -7.2716,12.96955 -4.1606,7.90683 -5.6482,12.02293 -4.8188,13.33333 5.3413,8.43922 -8.6638,18.03446 -15.4224,10.56627 -4.843,-5.35136 -1.3167,-16.00401 5.2976,-16.00401 2.2493,0 4.2678,-2.51816 9.1267,-11.38604 3.4313,-6.26232 6.2387,-12.64122 6.2387,-14.17532 0,-4.06511 -14.7624,-68.23382 -16.0041,-69.56608 -0.5779,-0.62009 -3.7019,3.87991 -6.9422,10 -3.2402,6.12009 -10.1664,18.92744 -15.3915,28.46077 -8.4709,15.45537 -9.4222,17.9134 -8.7809,22.68728 1.2941,9.63296 -7.4446,15.59089 -14.6057,9.95797 -4.9548,-3.89746 -4.9996,-10.69118 -0.096,-14.54848 1.9322,-1.51989 4.255,-2.76344 5.1617,-2.76344 0.9068,0 5.236,-6.45 9.6206,-14.33333 22.425,-40.3197 27.2047,-49.20051 27.8381,-51.72427 0.3798,-1.5131 -0.6293,-9.019128 -2.2423,-16.680072 -1.613,-7.660946 -3.2154,-15.571019 -3.5608,-17.577942 -0.67,-3.893142 4.079,-14.111512 16.8277,-36.208449 l 6.8411,-11.8574 -2.6663,-8.953017 c -3.3099,-11.1141925 -3.338,-10.6655162 0.6671,-10.6655162 1.8333,0 3.3333,0.2970142 3.3333,0.6600316 0,0.3630173 3.9468,14.0130176 8.7707,30.3333336 4.8238,16.320316 12.2691,41.673301 16.545,56.339968 4.2759,14.666663 11.8568,40.466663 16.8464,57.333333 4.9896,16.86667 9.0101,31.97993 8.9344,33.58503 -0.076,1.60509 -2.2394,6.40509 -4.8083,10.66666 -2.5689,4.26158 -8.2381,14.34831 -12.5982,22.41498 -4.3601,8.06666 -12.2247,22.57572 -17.477,32.24234 -7.7995,14.35479 -9.3361,18.14214 -8.3848,20.66667 1.3699,3.63557 -0.2363,8.75891 -3.5305,11.26096 -3.5641,2.70707 -8.1018,2.14713 -11.6916,-1.44271 z M 928.19207,188.19209 c -5.48087,-5.48087 -2.43736,-15.11067 5.12374,-16.21176 2.35079,-0.34235 4.42683,-2.92939 8.38982,-10.45491 2.89633,-5.5 8.47425,-15.7 12.39537,-22.66666 3.92112,-6.96667 13.27084,-24.06667 20.77713,-38 7.50631,-13.933336 14.1076,-25.933336 14.66955,-26.66667 0.56194,-0.733333 3.37436,-5.833333 6.2498,-11.333333 6.13422,-11.733171 19.67492,-36.337861 28.06692,-51 4.7992,-8.3849461 6.519,-10.3333332 9.121,-10.3333332 1.7637,0 3.2067,0.31711 3.2067,0.7046889 0,1.2560439 -7.547,15.6651683 -14.526,27.7338003 -3.7441,6.474503 -6.8074,12.073925 -6.8074,12.443163 0,0.369237 -3.5138,6.771917 -7.8086,14.228177 -4.2947,7.456261 -8.99085,15.956837 -10.43584,18.890171 -3.04906,6.189598 -14.31497,26.720136 -42.90306,78.184866 -10.22672,18.41031 -10.79556,19.85816 -10.02125,25.50728 0.68427,4.99235 0.35055,6.45941 -2.00516,8.81513 -3.58588,3.58588 -9.99058,3.66154 -13.49272,0.15939 z m -17.33334,-56 c -1.62962,-1.62963 -2.66666,-4.44444 -2.66666,-7.23809 0,-6.4156 3.69401,-9.65922 10.14194,-8.90539 0.81142,0.0949 3.21142,-2.36609 5.33334,-5.46879 2.12193,-3.1027 8.61393,-11.959222 14.42666,-19.681166 8.856,-11.764777 32.60019,-43.404453 46.05792,-61.37323 1.92231,-2.566667 5.50359,-9.916667 7.95839,-16.333334 3.94134,-10.3023406 4.84746,-11.6666662 7.7485,-11.6666662 2.07958,0 3.05108,0.6116269 2.64708,1.6666667 -0.351,0.9166666 -2.3267,6.7666666 -4.39042,12.9999995 -3.4047,10.28342 -5.73654,13.976099 -25.17119,39.860766 -11.7804,15.690086 -23.21889,30.982209 -25.41889,33.982494 -2.2,3.000286 -8.01092,10.7213 -12.91316,17.1578 -7.95035,10.4386 -8.8334,12.19426 -8.17477,16.25289 1.42564,8.78521 -9.43968,14.8851 -15.57874,8.74605 z M 716.73746,117.59103 c -4.15219,-1.72185 -6.54192,-8.33133 -4.43926,-12.27797 0.91454,-1.71653 2.57064,-3.79033 3.68026,-4.60845 1.53097,-1.12877 2.90744,-10.012938 5.70797,-36.840894 3.60012,-34.487763 3.8018,-35.561364 8.23668,-43.845856 9.21053,-17.2055129 10.21817,-18.4924362 14.47935,-18.4924362 2.17085,0 3.6945,0.45 3.38593,1 -0.30859,0.55 -3.88117,6.7 -7.93908,13.6666662 l -7.37801,12.666667 -3.61703,35.522588 -3.61703,35.522588 2.81075,2.810747 c 7.17969,7.17969 -1.70165,18.86101 -11.31053,14.87635 z m 38.52353,-38.067262 c -3.46339,-2.42585 -5.09941,-8.870995 -3.16792,-12.480028 0.77652,-1.450948 3.45961,-3.313908 5.96243,-4.13991 3.96876,-1.309808 5.70702,-3.582213 13.59577,-17.773448 4.97487,-8.949393 10.61883,-19.282361 12.54213,-22.96215 9.77542,-18.7029661 11.18295,-20.6400419 14.99867,-20.6414526 2.01667,-7.456e-4 3.66667,0.3635579 3.66667,0.8095633 0,0.4460054 -3.9,7.6033214 -8.66667,15.9051463 -4.76667,8.301825 -8.66667,15.424512 -8.66667,15.828192 0,0.40368 -3.93828,7.614279 -8.75173,16.023552 -7.59247,13.264303 -8.54907,15.668287 -7.22168,18.148525 1.16201,2.17125 1.13849,3.804258 -0.0979,6.788924 -2.65222,6.403046 -8.72272,8.324758 -14.1932,4.493086 z m 106.93108,-0.9421 c -8.64143,-4.955856 -7.40871,-15.656412 2.0428,-17.732311 3.32746,-0.730833 4.82981,-2.453331 8.52326,-9.772243 2.46608,-4.886762 7.39758,-14.025397 10.95887,-20.308076 3.56128,-6.28268 8.57507,-15.431878 11.14173,-20.331554 4.30287,-8.2140213 5.00579,-8.90864 9.01672,-8.9102807 l 4.35007,-0.00178 -3.12633,5 c -1.7195,2.75 -6.63592,11.6000007 -10.92542,19.6666667 -4.28948,8.066667 -10.65269,19.676148 -14.14046,25.798848 -5.16884,9.073786 -6.11986,11.714864 -5.14328,14.283446 1.68596,4.434425 -0.93656,11.15429 -4.94839,12.679584 -4.04103,1.536397 -4.4562,1.516452 -7.74957,-0.3723 z M 806.85874,65.961176 c -3.29868,-1.22465 -5.3359,-4.699211 -5.29094,-9.023926 0.0532,-5.112997 2.42527,-8.309764 7.02226,-9.463534 3.75812,-0.943228 3.49158,-0.534195 19.72361,-30.267586 7.69616,-14.0976097 8.90933,-15.6540204 12.21173,-15.6666659 2.01667,-0.00772 3.66667,0.1644865 3.66667,0.3826859 0,0.2181994 -3,5.9181994 -6.66667,12.666667 -3.66667,6.748467 -9.57896,17.62644 -13.13843,24.173275 -4.2027,7.729918 -6.07978,12.521574 -5.35375,13.666666 4.29147,6.76851 -4.39279,16.421404 -12.17448,13.532418 z"
         id="path339" />
      <path
         style="fill:#d38cb8;stroke-width:1.33333"
         d="m 784.65304,350.52542 c 5.58754,-10.53157 24.81427,-45.74089 31.85403,-58.33333 5.50706,-9.85083 35.90037,-65.47248 39.7072,-72.66667 4.54677,-8.59254 18.45322,-33.82214 27.52866,-49.94349 3.90436,-6.9356 7.37968,-14.4356 7.72295,-16.66667 0.34325,-2.23108 3.19117,-20.82519 6.32869,-41.32025 l 5.70458,-37.263749 9.23017,-16.736252 C 917.80591,48.39007 924.41181,36.32917 927.40911,30.79301 943.01761,1.9632584 943.30147,1.5438054 947.20878,1.5343434 l 3.6834,-0.00892 -3.35006,5.3068375 c -1.84252,2.9187606 -3.35006,5.7782831 -3.35006,6.3544941 0,0.57621 -2.31677,5.01225 -5.14838,9.857866 -2.83161,4.845615 -8.30927,14.736093 -12.17255,21.97884 -3.86328,7.242745 -9.3727,17.147632 -12.24316,22.010859 -2.87046,4.863226 -5.48736,10.863226 -5.81533,13.333333 -0.32797,2.470107 -3.08663,20.691107 -6.13033,40.491107 -6.0655,39.45742 -5.904,38.95656 -21.0453,65.26973 -3.72805,6.47877 -6.77828,12.14645 -6.77828,12.59484 0,0.44839 -3.66266,7.11228 -8.13925,14.80867 -15.46349,26.58565 -14.78549,24.40117 -12.48924,40.23902 1.09679,7.56492 3.81416,24.6859 6.0386,38.0466 l 4.04443,24.29219 -12.39394,22.70232 c -11.2264,20.56372 -12.7276,22.70284 -15.93596,22.70781 l -3.54202,0.005 6.00085,-11 c 3.30048,-6.05 8.94124,-16.44403 12.53504,-23.09783 l 6.53419,-12.09784 -1.17023,-9.23549 c -2.20103,-17.37064 -8.71772,-55.23536 -9.50627,-55.23536 -0.4331,0 -4.11474,6.15 -8.18142,13.66666 -4.06668,7.51667 -12.68111,23.26667 -19.14316,35 -6.46207,11.73334 -13.50744,24.63334 -15.65639,28.66667 -14.06948,26.40691 -18.60424,33.33333 -21.82344,33.33333 -3.18393,0 -3.15976,-0.10146 2.62252,-11 z m 106.89792,1.61591 4.72576,-9.38409 -1.75752,-20.05919 c -1.41407,-16.13923 -1.42949,-20.52751 -0.0789,-22.45571 0.92321,-1.31809 8.66434,-15.21861 17.20252,-30.89005 15.66445,-28.75148 23.08718,-42.24709 37.30547,-67.82687 4.27998,-7.7 9.6821,-17.6 12.00472,-22 2.32262,-4.4 10.52051,-19.4 18.21756,-33.33333 7.69704,-13.93333 15.12363,-27.43333 16.50354,-30 1.3799,-2.56667 6.26089,-11.37398 10.84679,-19.571813 4.5858,-8.197831 8.3378,-15.218552 8.3378,-15.601603 0,-0.38305 3.4997,-6.875733 7.777,-14.428186 7.6608,-13.526656 20.2465,-36.471619 30.3821,-55.389478 4.4921,-8.3844404 5.6577,-9.6589229 8.8409,-9.6666666 2.0167,-0.00491 3.6667,0.2820668 3.6667,0.6377168 0,0.35565 -1.8531,3.6582367 -4.1179,7.3390815 l -4.1179,6.6924443 4.9133,16.994252 c 2.7023,9.346839 7.2234,24.76752 10.0469,34.268182 l 5.1337,17.27393 -8.5866,16.0594 c -15.5905,29.1583 -18.1158,32.90814 -24.6709,36.63307 -3.3163,1.88448 -7.0179,4.02766 -8.2257,4.76259 -2.0319,1.23643 -2.0003,2.75112 0.422,20.27531 l 2.618,18.93905 -8.5621,15.72469 c -4.7092,8.64859 -10.4167,19.0247 -12.6833,23.05803 -2.2667,4.03333 -4.1321,8.65808 -4.1453,10.27721 -0.013,1.61915 4.1175,14.81915 9.1795,29.33334 5.062,14.5142 9.8198,28.48945 10.5729,31.05612 0.753,2.56666 6.4357,19.51666 12.628,37.66666 10.8921,31.92495 11.1601,33 8.2243,33 -2.2061,0 -3.4724,-1.18325 -4.6377,-4.33333 -3.5837,-9.68827 -31.2227,-90.66263 -35.4982,-104 -2.5272,-7.88333 -5.0219,-14.32953 -5.5439,-14.32491 -1.0359,0.009 -3.1165,3.46172 -11.24407,18.65824 -4.71527,8.8163 -11.02302,20.30927 -20.85574,38 -1.63038,2.93334 -4.52972,8.41458 -6.44296,12.18055 l -3.47862,6.84721 8.16536,23.48612 c 8.11029,23.32778 8.14398,23.48612 4.99558,23.48612 -3.38222,0 -5.75652,-5.36969 -15.58688,-35.2513 -4.48984,-13.64787 -4.37104,-14.49407 4.03594,-28.7487 2.81124,-4.76666 7.21506,-12.59236 9.78629,-17.39042 2.57121,-4.79808 9.93907,-18.29808 16.37299,-30 6.43391,-11.70194 15.59091,-28.47624 20.34891,-37.27624 4.758,-8.8 10.7581,-19.52499 13.3336,-23.83331 l 4.6827,-7.83332 -1.6695,-14.97856 c -0.9182,-8.23821 -2.135,-15.73184 -2.704,-16.65252 -0.7671,-1.24124 -3.4025,-0.27133 -10.195,3.75209 -14.5422,8.61392 -16.943,10.5163 -17.4098,13.79546 -1.51507,10.64289 -17.75054,9.73546 -17.75054,-0.99211 0,-6.73123 4.18571,-10.44873 10.60832,-9.42172 5.59897,0.89532 7.39432,0.0148 36.04402,-17.67624 l 16.6524,-10.28278 8.4901,-15.27183 c 14.9955,-26.973348 15.1904,-27.437571 14.1404,-33.675231 -0.8826,-5.242988 -15.0117,-53.047055 -15.9789,-54.062511 -0.2441,-0.25625 -2.0587,2.74375 -4.0326,6.666667 -1.9739,3.922919 -5.8289,11.032579 -8.5666,15.799245 -4.8259,8.402472 -19.8893,35.799979 -26.3908,48 -1.7586,3.3 -6.0567,11.1 -9.5512,17.33333 -3.4946,6.23334 -11.03546,20.03334 -16.75761,30.66667 -5.72214,10.63333 -12.32698,22.63333 -14.67741,26.66667 -2.35043,4.03333 -7.13081,12.73333 -10.62309,19.33333 -3.49227,6.6 -9.19583,17.1 -12.67456,23.33333 -12.42892,22.27056 -21.08145,38.089 -23.90639,43.70531 -2.78454,5.53601 -2.84788,6.76252 -2.13417,41.33333 0.40453,19.59542 1.04453,41.77803 1.42221,49.2947 l 0.68671,13.66666 h -3.37541 c -3.30576,0 -3.37915,-0.21322 -3.55611,-10.33333 -0.81729,-46.7386 -1.98787,-74.33068 -3.15264,-74.31239 -0.73333,0.012 -3.13333,3.61543 -5.33333,8.00867 -2.2,4.39324 -5.58328,10.68381 -7.51842,13.97905 l -3.5184,5.99134 1.87178,19.74752 1.87178,19.74752 -4.80146,8.58581 c -3.84796,6.8808 -5.44395,8.58581 -8.0368,8.58581 h -3.23534 z m 213.74534,-21.33107 c -2.9213,-1.7046 -4.334,-8.40801 -2.4958,-11.84274 2.2658,-4.23363 6.3004,-5.85095 10.7374,-4.30419 3.0243,1.05427 4.1891,0.89111 5.5722,-0.78053 1.8327,-2.21506 28.4763,-24.19591 43.3839,-35.79166 4.7853,-3.72218 9.731,-8.82218 10.9905,-11.33333 3.7833,-7.5434 30.686,-56.08409 32.5899,-58.80239 1.544,-2.2044 -0.4086,-9.23121 -15.4164,-55.47705 -9.4515,-29.12412 -21.0401,-64.952946 -25.7525,-79.619613 -4.7125,-14.666667 -11.5594,-35.875397 -15.2155,-47.130513 -3.6561,-11.255115 -6.3246,-21.305115 -5.93,-22.333333 0.3945,-1.028218 2.4936,-1.8694872 4.6646,-1.8694872 3.2982,0 3.8123,0.4248065 3.1271,2.5837975 -1.0074,3.1739214 0.6859,8.9597827 21.4854,73.4162027 23.3699,72.421996 34.5284,107.165986 37.9754,118.243656 l 2.98,9.577 -4.4384,8.423 c -2.4411,4.63266 -7.9462,14.5414 -12.2335,22.01944 -4.2874,7.47802 -7.8312,14.07802 -7.8753,14.66666 -0.044,0.58863 -3.2424,6.47024 -7.1074,13.07024 -7.2146,12.31963 -9.2638,14.36924 -35.0125,35.0206 -26.4255,21.19418 -27.1333,21.84899 -27.1333,25.10111 0,6.59343 -8.7013,10.77772 -14.8958,7.16313 z m -368.49816,-7.22424 c -1.8,-1.8 -3.27274,-4.52726 -3.27274,-6.0606 0,-3.41653 5.66852,-9.33333 8.94168,-9.33333 1.50802,0 3.61575,-2.34759 5.68626,-6.33333 1.8095,-3.48334 6.50824,-11.96432 10.44162,-18.84664 3.93339,-6.88232 7.8306,-14.08232 8.66047,-16 0.82987,-1.91768 2.80057,-5.59879 4.37935,-8.18024 1.57878,-2.58146 7.07081,-12.48146 12.20452,-22 l 9.33402,-17.30646 -1.32205,-33.33333 c -0.72713,-18.33333 -1.54743,-33.58284 -1.82287,-33.8878 -0.27545,-0.30495 -5.10564,1.19505 -10.73377,3.33333 -11.31563,4.29914 -10.44955,3.04408 -14.36895,20.82272 -2.29498,10.41023 -3.23133,12.26346 -23.95841,47.41883 -8.31011,14.09483 -9.20156,16.29583 -8.99041,22.19733 0.29748,8.3143 -2.24274,11.44892 -9.27786,11.44892 -5.71397,0 -7.84026,-2.48162 -7.84026,-9.15044 0,-4.70009 3.0189,-8.18234 7.09524,-8.18425 2.1247,-9.9e-4 3.94052,-1.88079 6.7617,-7 2.12132,-3.84925 7.97132,-13.9852 13,-22.52432 5.02868,-8.53913 9.14306,-15.94651 9.14306,-16.46084 0,-0.51433 1.15724,-2.56036 2.57165,-4.54672 2.46548,-3.46245 8.81205,-25.19416 7.68647,-26.31975 -0.2993,-0.29929 -5.8798,1.52736 -12.40115,4.05924 -6.52133,2.53187 -16.65697,6.38238 -22.52364,8.55668 -8.42839,3.12372 -11.05959,4.75246 -12.53916,7.76184 -2.43981,4.96243 -3.78896,5.76359 -9.74727,5.78815 -5.58025,0.0229 -7.71357,-2.50207 -7.71357,-9.13003 0,-5.85057 3.35565,-8.61277 9.21591,-7.58605 8.48921,1.48733 9.7705,1.17413 34.11742,-8.33957 13.2,-5.15798 29.7,-11.538 36.66667,-14.17783 6.96667,-2.63983 13.30013,-5.23763 14.07437,-5.77289 1.35622,-0.93762 12.5923,-19.85449 12.5923,-21.20017 0,-0.36266 3.51386,-6.75995 7.80861,-14.21621 4.29473,-7.45626 9.00047,-15.956836 10.4572,-18.89017 3.00152,-6.043973 24.74029,-45.899794 28.36265,-52 1.30637,-2.2 4.01656,-7 6.02263,-10.666666 7.87241,-14.38907 14.552,-24.9562045 16.16672,-25.5758306 0.9312,-0.3573344 2.63832,-0.4489549 3.7936,-0.203601 1.64016,0.348332 0.30153,3.5143135 -6.10804,14.4460976 -9.8039,16.720952 -26.88614,47.436672 -31.4035,56.466883 -1.77926,3.556787 -4.60752,8.656787 -6.285,11.333333 -1.67748,2.676548 -5.78282,9.966451 -9.123,16.199784 -3.34015,6.23333 -10.51495,19.43333 -15.94398,29.33333 l -9.87096,18 1.19777,37.33334 1.19778,37.33333 -9.23456,16.66667 c -5.079,9.16666 -13.65528,24.76666 -19.05838,34.66666 -5.40309,9.9 -12.38145,22.44064 -15.50745,27.8681 -4.59679,7.98108 -5.41864,10.36326 -4.29783,12.45753 0.7622,1.42417 1.0339,3.99157 0.60378,5.70532 -1.90243,7.57989 -9.28388,9.58443 -14.83864,4.02965 z m 379.82216,-46.31224 c -1.5978,-0.77248 -3.6364,-3.17008 -4.5303,-5.32801 -1.4084,-3.40024 -1.2698,-4.4012 1.0389,-7.50527 1.4652,-1.96996 3.9492,-3.77286 5.5199,-4.00646 3.0578,-0.45472 7.4705,-7.24518 19.2193,-29.57528 3.6655,-6.96667 8.6049,-15.96667 10.9765,-20 2.3716,-4.03334 7.2177,-12.80026 10.7691,-19.48204 l 6.457,-12.14871 -5.1035,-17.85129 c -5.1127,-17.88386 -15.1975,-52.51044 -29.4692,-101.18463 -4.1929,-14.3 -8.0595,-26.810174 -8.5925,-27.800386 -0.6767,-1.257136 -1.7574,-0.251331 -3.5817,3.333333 -1.4369,2.823545 -5.7293,10.685148 -9.5388,17.470225 -3.8094,6.785079 -6.9263,13.374011 -6.9263,14.642074 0,1.268061 3.8598,19.416634 8.5773,40.330164 12.3012,54.5335 16.9224,75.84802 17.004,78.42884 0.039,1.24432 -2.9647,7.86695 -6.6758,14.71695 -5.6324,10.39661 -6.5401,12.99961 -5.4931,15.75347 1.8015,4.73825 1.6247,5.54276 -2.0184,9.18593 -6.0125,6.01249 -15.394,2.47221 -15.394,-5.80919 0,-4.3833 4.3317,-9.58474 7.9821,-9.58474 3.2093,0 14.6914,-20.45576 14.6701,-26.13524 -0.013,-3.3948 -13.551,-64.80435 -15.3803,-69.76496 -0.4061,-1.10115 -4.6841,5.3466 -10.1736,15.33333 -5.2101,9.47844 -12.6359,22.92149 -16.5017,29.87345 -5.5751,10.02558 -6.7539,13.15374 -5.6994,15.12419 4.6221,8.63641 -7.8957,17.2374 -14.8972,10.23589 -5.2647,-5.26477 -1.9654,-14.66666 5.1469,-14.66666 1.6152,0 3.3221,-1.05 3.793,-2.33334 0.4708,-1.28333 4.8754,-9.53333 9.7878,-18.33333 4.9124,-8.8 12.6083,-22.59676 17.102,-30.65948 4.4937,-8.06271 8.1818,-16.16271 8.1958,-18 0.014,-1.837285 -1.5526,-10.575678 -3.4814,-19.41865 l -3.5068,-16.07813 4.3098,-8.588537 c 2.3705,-4.723695 7.9276,-14.799011 12.3492,-22.389591 l 8.0393,-13.801054 -2.2957,-7.532279 c -1.2627,-4.1427532 -2.5936,-8.5822785 -2.9577,-9.8656119 -0.4945,-1.7432342 0.1196,-2.3304426 2.428,-2.3219029 2.8563,0.010566 3.6697,1.9508405 10.7611,25.6666668 9.053,30.276224 21.1585,71.999999 26.5923,91.655239 2.1287,7.7 6.8403,23.67237 10.4701,35.49417 3.6298,11.82179 6.5997,22.87075 6.5997,24.55325 0,1.6825 -3.9,9.87252 -8.6667,18.20006 -4.7667,8.32753 -8.6667,15.52582 -8.6667,15.99622 0,0.47039 -2.6578,5.40799 -5.9063,10.97244 -3.2485,5.56446 -9.1778,16.24034 -13.1763,23.72416 -6.4204,12.01692 -7.1929,14.29007 -6.6111,19.4525 0.5838,5.17894 0.2413,6.174 -3.0035,8.72634 -4.0523,3.18754 -5.2828,3.35466 -9.5412,1.29588 z M 930.89377,189.65965 c -2.21546,-0.6076 -3.7041,-2.31955 -4.53438,-5.21455 -1.71978,-5.99649 0.59206,-10.52196 6.1049,-11.95048 3.65434,-0.94693 5.17698,-2.66046 9.22808,-10.38496 2.66839,-5.088 8.22244,-15.17782 12.34232,-22.42184 4.11989,-7.244 7.49071,-13.48124 7.49071,-13.86052 0,-0.37928 3.80274,-7.35236 8.45056,-15.49574 4.64781,-8.14337 9.35058,-16.606136 10.45061,-18.806136 2.02145,-4.042784 12.93227,-24.098028 25.75113,-47.333334 24.2663,-43.9847608 23.4383,-42.6666662 26.8029,-42.6666662 1.7663,0 3.2115,0.376135 3.2115,0.8358555 0,0.883511 -7.761,15.3314377 -16.0243,29.8308107 -2.7165,4.766667 -9.3126,16.766667 -14.6581,26.666667 -5.3454,9.9 -13.52865,24.729451 -18.18496,32.954333 -4.6563,8.22488 -8.46601,15.3464 -8.46601,15.82559 0,0.47919 -2.03303,4.24973 -4.51783,8.379 -2.4848,4.12926 -8.58982,15.00774 -13.56673,24.17441 -4.97689,9.16667 -11.00408,20.26667 -13.39373,24.66667 -3.36654,6.19868 -4.28995,9.41557 -4.10104,14.28682 0.33677,8.68471 -4.39861,12.70455 -12.38563,10.51407 z m -16.94788,-56.15596 c -8.94484,-3.5658 -6.85274,-17.3116 2.63482,-17.3116 2.75825,0 4.67509,-1.64541 8.93134,-7.66667 7.7721,-10.995062 18.1336,-24.917218 27.61141,-37.099828 4.52143,-5.811759 12.43247,-16.266835 17.5801,-23.233502 5.14762,-6.966666 11.1674,-15.098048 13.37728,-18.069736 2.20988,-2.971688 5.91904,-10.621688 8.24258,-16.999999 3.68536,-10.1166115 4.62739,-11.5969312 7.37996,-11.5969312 1.73542,0 3.14932,0.15 3.14192,0.3333333 -0.01,0.1833334 -2.0115,6.0517247 -4.45353,13.0408689 -3.84307,10.998894 -6.30635,15.197702 -18.31989,31.227407 -7.6339,10.185928 -16.35794,21.937769 -19.38676,26.115203 -3.02882,4.177432 -8.12882,10.92071 -11.33334,14.985061 -20.11215,25.508653 -23.66699,31.069363 -23.58658,36.895663 0.10893,7.8917 -5.12804,12.04816 -11.81931,9.38073 z M 714.39872,115.0871 c -3.27129,-3.61473 -2.82136,-10.21793 0.89543,-13.14156 2.91763,-2.295008 3.32251,-4.564258 6.80883,-38.16244 l 3.70673,-35.722338 7.02332,-12.934336 C 739.30252,3.2120538 740.20028,2.1580047 744.21778,1.7598427 l 4.36142,-0.4322479 -2.88114,4.4322478 c -1.58463,2.4377364 -5.29884,8.7552234 -8.2538,14.0388614 l -5.37268,9.606612 -3.64788,35.346974 c -3.49195,33.835931 -3.54636,35.4339 -1.2731,37.38034 2.97295,2.54551 3.13888,10.43824 0.27956,13.29756 -2.86637,2.86638 -10.30413,2.67056 -13.03144,-0.34309 z m 42.46002,-35.122702 c -3.74172,-2.167028 -4.62284,-3.816286 -4.64626,-8.696702 -0.0217,-4.515172 3.80222,-8.408939 8.25799,-8.408939 1.5798,0 3.84143,-3.014289 6.89025,-9.183349 2.49619,-5.050842 6.91142,-13.300842 9.8116,-18.333334 2.90019,-5.03249 8.20811,-14.699984 11.79536,-21.483317 5.8206,-11.0064729 6.91867,-12.3333332 10.20667,-12.3333332 3.77968,0 4.62191,1.1649844 2.45804,3.4 -1.04769,1.0821572 -9.18203,15.6752182 -28.83432,51.7290972 -3.38639,6.212623 -4.12891,8.920319 -3.65635,13.333333 0.36627,3.420456 -0.0843,6.401744 -1.17833,7.797926 -2.3646,3.017438 -7.81123,4.08601 -11.10465,2.178618 z m 103.07598,-3.438974 c -5.16221,-6.010602 -3.34713,-12.097983 4.61687,-15.484023 2.70504,-1.1501 5.27368,-3.756432 6.90558,-7.006953 1.42915,-2.846631 6.36083,-11.828858 10.95928,-19.960504 4.59846,-8.131648 8.79004,-15.931648 9.31466,-17.333334 0.5246,-1.401686 2.69438,-5.39852 4.82176,-8.8818529 2.89396,-4.7385665 4.67848,-6.3333333 7.08689,-6.3333333 1.77044,0 3.21897,0.367406 3.21897,0.8164578 0,0.4490517 -3.6,7.0783307 -8,14.7317314 -4.4,7.6534 -8,14.190003 -8,14.525784 0,0.335783 -3.84098,7.37616 -8.53553,15.645285 -7.83243,13.796302 -8.47937,15.532988 -7.85381,21.082995 0.5133,4.553976 0.128,6.60198 -1.55971,8.289651 -2.94401,2.944025 -10.41299,2.891121 -12.97496,-0.09191 z M 803.62064,63.430185 c -4.23212,-4.232123 -1.02498,-15.238095 4.44039,-15.238095 3.31829,0 5.34257,-2.715042 13.42044,-18 C 834.1208,6.2759118 837.35301,1.5254238 840.98609,1.5254238 h 3.26763 l -4.82243,9.0000002 c -2.65233,4.95 -8.7107,16.006289 -13.46305,24.56953 -7.2168,13.003927 -8.40462,16.010518 -7.2084,18.245679 2.10032,3.924499 1.76371,6.519975 -1.23444,9.518124 -3.23444,3.234439 -10.92566,3.550517 -13.90476,0.571428 z"
         id="path337" />
      <path
         style="fill:#cb609d;stroke-width:1.33333"
         d="m 785.7194,348.52542 c 3.75791,-7.15 7.2812,-13.6 7.82955,-14.33333 0.54833,-0.73333 5.06343,-8.83333 10.03355,-18 4.9701,-9.16667 13.82409,-25.36667 19.67553,-36 5.85144,-10.63333 12.55834,-22.93333 14.90422,-27.33333 6.87664,-12.89799 25.90466,-47.24764 31.51942,-56.8993 2.84738,-4.89461 5.17706,-9.31202 5.17706,-9.81646 0,-0.50444 3.67358,-7.29975 8.1635,-15.1007 6.86276,-11.9236 8.35318,-15.67068 9.35402,-23.51688 0.6548,-5.13333 3.50622,-23.73333 6.3365,-41.33333 l 5.14597,-32 7.71284,-14 c 4.24207,-7.7 10.46708,-19.146278 13.83335,-25.436174 16.5273,-30.8813611 18.01872,-33.2278206 21.12049,-33.2291787 1.65,-7.224e-4 3,0.2933004 3,0.653384 0,1.3478541 -14.93505,28.9623507 -34.23721,63.3036507 -4.19872,7.470129 -7.10202,14.27525 -7.11054,16.666666 -0.008,2.222908 -2.61306,20.301712 -5.78918,40.175122 l -5.77476,36.13346 -7.8775,14.31968 c -4.33261,7.87583 -10.57748,19.28875 -13.87748,25.36203 -3.3,6.07328 -9.78941,18.01772 -14.4209,26.5432 l -8.42091,15.50087 1.48552,9.67032 c 0.81704,5.31866 3.55235,22.34561 6.07845,37.83766 l 4.59292,28.16736 -11.40552,21.12732 c -6.27302,11.62003 -12.04238,21.89472 -12.82078,22.83264 -1.40214,1.68947 -6.42211,2.41903 -6.42211,0.93335 0,-1.02432 8.94172,-17.66145 16.91753,-31.47709 5.79246,-10.03363 6.37763,-11.81522 6.1737,-18.79583 -0.33792,-11.56689 -8.63126,-59.77509 -10.19362,-59.25431 -0.73645,0.24548 -3.50044,4.61323 -6.14218,9.70611 -6.53146,12.59165 -23.29073,43.2432 -29.68267,54.28753 -2.87366,4.96527 -5.94552,10.66527 -6.82634,12.66667 -0.88083,2.00139 -5.399,10.38889 -10.04039,18.63889 -7.09211,12.60611 -8.95005,15 -11.64175,15 -3.13338,0 -3.05466,-0.28192 3.62972,-13 z m 105.88307,3.51363 4.77726,-9.48637 -1.6307,-19.51363 -1.63071,-19.51363 12.04125,-22 c 6.62271,-12.1 14.2143,-25.80764 16.87022,-30.46142 2.65592,-4.65378 4.82894,-8.70779 4.82894,-9.00891 0,-0.30112 3.9,-7.41708 8.66667,-15.81324 4.76667,-8.39617 8.66666,-15.53452 8.66666,-15.863 0,-0.32849 2.17331,-4.40489 4.82958,-9.05867 9.19704,-16.11325 27.67801,-49.82392 30.95345,-56.46142 1.8094,-3.66667 4.60156,-8.76667 6.20479,-11.33334 1.60322,-2.56666 5.47453,-9.46666 8.60289,-15.33333 7.62543,-14.29999 25.41363,-46.755185 43.48143,-79.333333 4.2704,-7.7 10.0898,-18.485065 12.932,-23.966811 6.4409,-12.422829 7.2325,-13.3665222 11.2114,-13.3665222 h 3.2223 l -4.1951,7.6666667 -4.1951,7.6666665 9.9467,34.220577 9.9467,34.220576 -5.3191,9.779424 c -20.9529,38.522316 -20.6078,38.022256 -29.778,43.150506 -4.6808,2.61769 -8.5106,4.9166 -8.5106,5.1087 0,0.19211 1.185,8.86875 2.6334,19.28142 l 2.6335,18.93213 -7.1552,12.98667 c -3.9353,7.14266 -9.6856,17.48666 -12.7783,22.98666 -3.0928,5.5 -5.5949,11.5 -5.5602,13.33334 0.035,1.83333 2.2544,9.33333 4.9329,16.66666 2.6785,7.33334 8.077,22.93334 11.9966,34.66667 3.9197,11.73333 11.365,33.88375 16.5453,49.22313 5.1803,15.33939 9.4187,28.38939 9.4187,29 0,0.61062 -1.1151,1.1102 -2.4781,1.1102 -2.0162,0 -4.1066,-4.6584 -11.2181,-25 -4.807,-13.75 -9.1544,-26.5 -9.6608,-28.33333 -0.5064,-1.83333 -4.6538,-14.13333 -9.2164,-27.33333 -4.5626,-13.2 -9.7343,-28.36746 -11.4928,-33.70544 -3.1858,-9.67071 -3.2055,-9.69458 -5.5049,-6.66667 -1.2692,1.67132 -4.9846,8.13877 -8.25644,14.37211 -3.27184,6.23333 -11.90398,22.13333 -19.18251,35.33333 l -13.23372,24 3.26164,8.66667 c 4.24301,11.27434 12.31543,35.7954 12.31543,37.40978 0,0.69128 -1.14326,1.25688 -2.54058,1.25688 -2.66244,0 -6.04244,-7.99162 -15.03218,-35.54185 l -3.98368,-12.20852 3.17578,-6.45815 c 1.74668,-3.55198 6.67764,-12.75814 10.95767,-20.45814 4.28004,-7.7 10.91105,-19.7 14.73559,-26.66667 3.82453,-6.96667 11.2438,-20.31355 16.4872,-29.65972 5.2434,-9.34619 9.5335,-17.31673 9.5335,-17.71233 0,-0.3956 4.0062,-7.69635 8.9026,-16.22387 l 8.9025,-15.50459 -1.677,-15.28825 c -0.9223,-8.40853 -1.9714,-16.05543 -2.3312,-16.99308 -0.4485,-1.16879 -4.9213,0.90265 -14.2255,6.58819 -11.2291,6.86169 -13.6447,8.91653 -13.9961,11.90578 -0.55943,4.75903 -5.71651,8.14282 -10.5581,6.92766 -5.42536,-1.36168 -7.01717,-3.20055 -7.01717,-8.10627 0,-5.99947 5.48805,-10.4514 11.49469,-9.32455 4.78927,0.89847 8.33148,-0.78396 28.50528,-13.53922 6.9667,-4.40479 15.1671,-9.43222 18.223,-11.17207 4.5555,-2.59355 6.6949,-5.33101 11.877,-15.19719 3.4763,-6.6186 7.7765,-14.35191 9.5559,-17.185124 1.7794,-2.833216 4.2881,-7.633216 5.5748,-10.666667 l 2.3396,-5.515365 -5.592,-19.333334 c -10.6428,-36.795057 -11.5658,-39.47491 -12.8592,-37.333333 -3.1198,5.165811 -30.7431,55.065355 -36.5361,66 -6.8571,12.942943 -25.80296,47.267933 -31.4059,56.899293 -2.84739,4.89461 -5.17707,9.24775 -5.17707,9.67361 0,0.42587 -4.29008,8.42119 -9.53352,17.76738 -5.24344,9.34617 -12.66268,22.69305 -16.48721,29.65972 -3.82454,6.96666 -10.46355,18.96666 -14.75336,26.66666 -4.28981,7.7 -9.47449,17.3 -11.52152,21.33334 l -3.72187,7.33333 0.72508,44.66667 c 0.3988,24.56666 1.00983,46.91666 1.35784,49.66666 0.5747,4.54136 0.34474,5 -2.50696,5 -3.13668,0 -3.14054,-0.0213 -4.01576,-22.21294 -0.48182,-12.21712 -0.87605,-31.71712 -0.87605,-43.33334 0,-11.61621 -0.46512,-21.12038 -1.03359,-21.12038 -0.56848,0 -4.72784,6.8133 -9.24302,15.14068 l -8.20943,15.14066 1.89101,19.77346 1.89103,19.77344 -4.92504,8.41921 c -3.78881,6.47688 -5.634,8.41921 -7.99809,8.41921 -3.04884,0 -3.0354,-0.0748 1.7042,-9.48637 z m 213.24443,-21.69073 c -1.6472,-1.20448 -2.5215,-3.47279 -2.5215,-6.54207 0,-6.79347 2.53,-9.19011 9.2644,-8.77597 4.9746,0.30592 6.4763,-0.38659 13.5472,-6.24707 4.3738,-3.62512 16.4674,-13.49112 26.8746,-21.92445 18.895,-15.3112 18.9341,-15.35451 27.1291,-30 4.5138,-8.06667 9.4081,-17.06667 10.8762,-20 1.4681,-2.93334 5.9471,-11.03334 9.9533,-18 4.0063,-6.96667 7.2951,-13.32888 7.3085,-14.13824 0.014,-0.80938 -3.6022,-12.50938 -8.0348,-26 -4.4326,-13.49064 -11.995,-36.82843 -16.8055,-51.86176 -21.7479,-67.965388 -29.6222,-92.354202 -34.2644,-106.126398 -5.3662,-15.9204429 -5.2297,-19.2069382 0.7979,-19.2069382 2.736,0 3.0994,0.4069608 2.0837,2.3333333 -0.8938,1.6949046 1.8352,11.8185609 9.9736,36.9999999 6.1622,19.066667 15.0821,46.666667 19.8221,61.333333 4.74,14.66667 14.126,43.68459 20.8579,64.48427 l 12.2397,37.8176 -4.3418,8.84906 c -2.388,4.86699 -6.3117,12.14907 -8.7194,16.1824 -2.4077,4.03334 -6.9271,12.13334 -10.0431,18 -11.4888,21.63019 -16.1278,28.6529 -21.7796,32.97082 -3.1406,2.39938 -8.6718,6.85157 -12.2916,9.89374 -15.1119,12.70067 -21.6527,18.01276 -28.8392,23.4218 -4.9104,3.6959 -7.6178,6.70958 -7.6667,8.53383 -0.2036,7.609 -9.4188,12.39132 -15.4206,8.00271 z m -368.04876,-6.7623 c -1.8,-1.8 -3.27274,-4.52726 -3.27274,-6.0606 0,-3.42765 5.67259,-9.33333 8.96496,-9.33333 1.59956,0 3.94287,-2.82408 6.91463,-8.33333 2.47232,-4.58334 7.33629,-13.43334 10.80884,-19.66667 11.05201,-19.83873 22.99457,-41.69707 28.17063,-51.56036 l 5.01708,-9.56036 -1.39831,-33.10631 c -0.76907,-18.20846 -1.61679,-33.33189 -1.8838,-33.6076 -0.67659,-0.6986 -21.92256,6.78607 -21.94825,7.73207 -0.012,0.42308 -1.19044,6.30972 -2.61988,13.08144 -2.32798,11.02831 -4.01868,14.78237 -16.2132,36 -18.99642,33.05248 -18.32592,31.60659 -17.50274,37.74388 0.9079,6.76892 -2.14113,10.61057 -8.42137,10.61057 -5.55236,0 -8.55525,-3.00289 -8.55525,-8.55525 0,-4.84517 3.37161,-8.77808 7.52528,-8.77808 1.95838,0 4.5664,-3.38795 10.0073,-13 4.04727,-7.15 11.29935,-19.9 16.11574,-28.33333 6.33469,-11.09182 9.36145,-18.05383 10.94189,-25.16806 1.20164,-5.40909 1.92869,-10.09081 1.61568,-10.40382 -0.31301,-0.31303 -5.8874,1.46384 -12.38751,3.94856 -6.5001,2.48473 -17.06838,6.5023 -23.48505,8.92794 -8.36916,3.16372 -11.66667,5.05164 -11.66667,6.6795 0,6.12201 -13.07314,9.48474 -15.95309,4.10353 -1.53265,-2.8638 -1.80414,-8.0982 -0.58484,-11.27567 1.02873,-2.68085 8.81656,-4.13694 12.26251,-2.29272 3.03449,1.62402 5.65317,0.8283 35.60876,-10.82009 10.26666,-3.99225 24.85176,-9.60776 32.4113,-12.47891 l 13.74464,-5.22026 6.5887,-11.49157 c 3.62378,-6.32036 6.58869,-11.83655 6.58869,-12.25819 0,-0.42165 3.20951,-6.35045 7.13225,-13.17511 8.34735,-14.522469 22.21325,-39.67366 28.15781,-51.075133 6.07495,-11.651544 22.9987,-41.642579 27.65038,-48.9999999 2.98077,-4.7145881 4.8309,-6.3333333 7.23865,-6.3333333 h 3.23444 l -4.10064,7.37008 c -2.25536,4.0535442 -5.8232,10.2035442 -7.92855,13.6666662 -4.1721,6.862778 -20.60318,36.174794 -27.44672,48.963254 -4.17682,7.805178 -17.25456,31.702916 -33.60691,61.411966 l -8.11607,14.74531 1.44829,37.2624 1.4483,37.26242 -3.34396,5.32561 c -1.83919,2.92909 -5.72939,9.82563 -8.64488,15.32563 -7.37484,13.91241 -23.76159,43.80976 -31.34355,57.18578 -4.89317,8.63248 -6.04811,11.73207 -5.05965,13.57902 0.70445,1.31626 1.28081,3.35994 1.28081,4.54148 0,3.06905 -6.03848,8.69372 -9.33333,8.69372 -1.53334,0 -4.2606,-1.47274 -6.0606,-3.27274 z M 1114.3987,275.0871 c -3.2358,-3.57553 -2.8388,-10.30101 0.7567,-12.81941 1.6298,-1.14157 3.9048,-2.0756 5.0556,-2.0756 1.1745,0 3.683,-3.07033 5.7189,-7 4.8043,-9.27285 13.0242,-24.38333 20.8528,-38.33333 12.7619,-22.74071 18.7427,-34.46126 18.7427,-36.72986 0,-1.27566 -2.0714,-9.2833 -4.6032,-17.79477 -4.4403,-14.92783 -13.1202,-44.67463 -29.4152,-100.808706 -4.2576,-14.666667 -8.1759,-27.167408 -8.7074,-27.779426 -0.5315,-0.612018 -1.8162,0.587982 -2.8549,2.666667 -1.0387,2.078684 -5.3079,9.869241 -9.4872,17.312351 -4.1793,7.443108 -7.5988,14.823901 -7.5988,16.401761 0,1.57786 3.9437,20.388044 8.7638,41.800413 4.82,21.41236 10.6914,47.61659 13.0474,58.23162 l 4.2837,19.30007 -6.9015,12.87493 c -6.1197,11.41641 -6.8252,13.55188 -6.228,18.85063 0.5822,5.16493 0.2508,6.27184 -2.4426,8.15834 -1.7139,1.20046 -4.378,2.18264 -5.9204,2.18264 -3.7533,0 -8.6024,-5.36637 -8.6024,-9.52018 0,-3.65622 4.5193,-8.60743 8.5314,-9.34671 3.3536,-0.61796 14.4583,-20.49585 14.3675,-25.71847 -0.091,-5.19956 -15.1695,-71.41464 -16.2631,-71.41464 -0.4685,0 -1.6759,1.65 -2.683,3.66667 -1.0071,2.01667 -5.6085,10.35175 -10.2253,18.52241 -4.6168,8.17067 -8.3941,15.15163 -8.3941,15.51326 0,0.36162 -2.6443,5.29692 -5.8762,10.96733 -5.2224,9.16292 -5.7224,10.75061 -4.4948,14.27203 1.1404,3.27146 0.9215,4.58072 -1.2558,7.51025 -5.2139,7.01544 -16.3732,3.98117 -16.3732,-4.45195 0,-3.93165 4.2833,-8.66666 7.8399,-8.66666 1.8526,0 5.203,-4.95762 12.8404,-19 5.6835,-10.45 12.5808,-22.9 15.3274,-27.66667 8.0118,-13.90432 11.5488,-21.80839 11.0383,-24.666666 -0.262,-1.466667 -1.9859,-9.572851 -3.8308,-18.013743 l -3.3545,-15.347077 5.1687,-9.986256 c 2.8428,-5.492442 8.3526,-15.607716 12.2441,-22.47839 l 7.0754,-12.49213 -2.0879,-7.507869 c -1.1483,-4.1293277 -2.491,-8.5578685 -2.9838,-9.8412019 -0.6979,-1.8176261 -0.2013,-2.329835 2.2468,-2.3175054 3.4235,0.017243 1.9844,-4.3772498 28.8125,87.9841723 4.7927,16.499996 12.5277,42.904056 17.1888,58.675676 4.661,15.77163 8.4747,29.78654 8.4747,31.14426 0,1.35772 -3.9,9.26097 -8.6667,17.5628 -4.7667,8.30182 -8.6667,15.4105 -8.6667,15.79706 0,0.38658 -1.8744,3.87926 -4.1653,7.76152 -2.291,3.88228 -8.3124,14.73906 -13.3811,24.12619 -7.9866,14.79105 -9.1005,17.68172 -8.3518,21.67255 1.2318,6.56646 -2.0719,11.25994 -7.9259,11.25994 -2.5976,0 -5.3417,-1.00829 -6.6359,-2.43832 z M 927.37529,186.15012 c -3.4683,-5.2933 -1.12065,-11.61903 4.86668,-13.11324 4.90999,-1.22535 3.9843,0.25322 27.987,-44.70202 2.58697,-4.84519 8.22191,-15.10944 12.52207,-22.80944 13.74028,-24.603712 21.75856,-39.137242 25.74641,-46.666663 7.14075,-13.48226 27.86595,-51.2960572 29.77945,-54.3333332 1.0708,-1.6996778 3.2248,-3 4.9695,-3 2.9704,0 2.849,0.4372956 -3.4248,12.3333332 -3.5774,6.783333 -11.7905,21.933333 -18.2513,33.666667 -6.4608,11.733333 -14.12909,25.833333 -17.0406,31.333333 -2.9115,5.5 -5.74804,10.6 -6.30342,11.333333 -0.55538,0.733334 -6.86008,12.13333 -14.01047,25.33333 -7.15037,13.2 -17.34636,31.8 -22.65775,41.33334 -8.68938,15.59646 -9.59479,17.90366 -9.03575,23.02508 0.78893,7.22738 -1.16316,9.64158 -7.7961,9.64158 -4.02769,0 -5.6177,-0.73008 -7.35092,-3.3753 z m -17.10762,-55.58804 c -4.32172,-6.17012 -1.59728,-12.65319 5.96753,-14.20036 3.56049,-0.7282 5.77119,-2.6091 9.93487,-8.45276 4.88469,-6.8556 28.37051,-38.276374 44.63606,-59.71687 15.2762,-20.136388 17.41848,-23.586257 21.63051,-34.833163 3.6728,-9.8071047 4.90769,-11.8100354 7.28798,-11.8206832 2.82528,-0.012638 2.80318,0.1718837 -1.56032,13.0264782 -3.96225,11.67254 -5.93974,15.045668 -18.86589,32.180698 -7.94183,10.527769 -15.32079,20.410085 -16.39771,21.960701 -1.07692,1.550616 -5.60394,7.619303 -10.06006,13.485969 -4.45612,5.866667 -8.975,11.937218 -10.04197,13.490114 -1.06696,1.552894 -5.38994,7.306306 -9.6066,12.785366 -6.45958,8.39344 -7.66667,10.82043 -7.66667,15.41465 0,6.67687 -2.67199,9.6432 -8.68629,9.6432 -3.13438,0 -5.12438,-0.89738 -6.57144,-2.96334 z M 714.39872,115.0871 c -3.31593,-3.66407 -2.82014,-10.21889 1.00023,-13.224 3.05319,-2.401631 3.37961,-4.211534 6.81079,-37.763436 l 3.60392,-35.240907 5.02013,-9.333333 c 9.44656,-17.562797 9.76425,-17.9825282 13.61796,-17.99157 l 3.59301,-0.00843 -7.96218,13.409284 -7.96219,13.409284 -3.79687,35.590716 c -3.71661,34.838472 -3.74404,35.648894 -1.29749,38.343322 3.18504,3.50773 3.21631,10.18528 0.0611,13.04074 -3.23639,2.92889 -9.93886,2.80651 -12.68836,-0.23167 z m 40,-37.333331 c -3.23581,-3.575529 -2.83882,-10.301009 0.7567,-12.819407 1.62982,-1.141582 3.97993,-2.075605 5.22244,-2.075605 1.51169,0 5.05286,-5.146937 10.70333,-15.556797 4.64432,-8.556238 11.44421,-21.092687 15.11088,-27.858774 9.16885,-16.9192525 10.20615,-18.2656123 13.65,-17.7170013 2.75911,0.439529 2.46777,1.2584996 -5.14607,14.4659053 -4.43892,7.7 -8.57582,15.277534 -9.19312,16.838963 -0.61729,1.561431 -4.72382,9.090948 -9.12562,16.732261 -7.24302,12.573544 -7.93152,14.428198 -7.24799,19.524291 0.57629,4.296603 0.18981,6.255831 -1.63095,8.26774 -3.04289,3.362368 -10.139,3.469856 -13.0996,0.198424 z m 106.09003,-0.970617 c -5.93695,-4.158395 -2.53731,-15.257728 4.67332,-15.257728 2.11306,0 4.19922,-2.73472 8.89984,-11.666667 21.19586,-40.2756525 25.69081,-47.6572161 29.28317,-48.088563 1.93251,-0.2320431 3.51365,-0.01053 3.51365,0.4922524 0,0.5027818 -2.03428,4.2926353 -4.52062,8.4218966 -2.48635,4.129261 -7.56318,13.251557 -11.28184,20.27177 -3.71867,7.020212 -9.17231,16.890035 -12.11922,21.93294 -4.54853,7.783697 -5.2361,9.931276 -4.5511,14.215043 1.55149,9.702501 -6.17792,15.085849 -13.8972,9.679056 z m -56.75669,-13.69605 c -4.5575,-5.035969 -1.30036,-14.342973 5.29888,-15.141186 2.81673,-0.340699 4.47453,-2.31812 8.73616,-10.420492 14.92506,-28.3761405 19.81954,-36.0000002 23.11182,-36.0000002 3.18535,0 3.17299,0.056012 -2.27897,10.3333332 -3.01494,5.683333 -7.42236,13.633333 -9.7943,17.666667 -9.16999,15.593024 -11.35074,20.974333 -9.97069,24.604134 1.53775,4.044591 -0.12146,9.321304 -3.31646,10.547352 -4.13843,1.588062 -9.57403,0.854883 -11.78644,-1.589808 z"
         id="path335" />
      <path
         style="fill:#b0498f;stroke-width:1.33333"
         d="m 785.7194,348.52542 c 3.75791,-7.15 7.2812,-13.6 7.82955,-14.33333 0.54833,-0.73333 5.06343,-8.83333 10.03355,-18 4.9701,-9.16667 13.82409,-25.36667 19.67553,-36 5.85144,-10.63333 12.55834,-22.93333 14.90422,-27.33333 6.87664,-12.89799 25.90466,-47.24764 31.51942,-56.8993 2.84738,-4.89461 5.17706,-9.23221 5.17706,-9.63912 0,-0.40689 3.9,-7.55324 8.66667,-15.88077 4.76667,-8.32753 8.66187,-16.58993 8.656,-18.36089 -0.005,-1.77096 2.41621,-19.11992 5.38239,-38.55326 5.76785,-37.788988 6.08165,-38.84099 17.8978,-59.999996 3.89049,-6.966667 9.625,-17.466667 12.74334,-23.333334 11.1648,-21.0048447 16.19107,-28.6666662 18.80576,-28.6666662 1.38308,0 2.51471,0.2608146 2.51471,0.579588 0,0.3187734 -3.69826,7.3687733 -8.21835,15.6666662 -4.52009,8.297894 -11.38133,20.916028 -15.2472,28.040302 -3.86586,7.124272 -9.46761,17.128956 -12.44832,22.23263 -2.9807,5.103675 -5.42554,10.974724 -5.43298,13.046778 -0.008,2.072053 -2.66027,20.267372 -5.89516,40.434032 -6.3758,39.74732 -6.58966,40.3994 -21.42538,65.33334 -2.39982,4.03333 -5.5399,9.73333 -6.97794,12.66666 -1.43803,2.93334 -6.95094,13.24948 -12.25091,22.92478 l -9.63629,17.59142 1.49754,9.74191 c 0.82366,5.35804 3.56438,22.4172 6.09048,37.90925 l 4.59292,28.16736 -11.40552,21.12732 c -6.27302,11.62003 -12.04238,21.89472 -12.82078,22.83264 -1.40214,1.68947 -6.42211,2.41903 -6.42211,0.93335 0,-1.02432 8.94172,-17.66145 16.91753,-31.47709 5.79246,-10.03363 6.37763,-11.81522 6.1737,-18.79583 -0.33792,-11.56689 -8.63126,-59.77509 -10.19362,-59.25431 -0.73645,0.24548 -3.50044,4.61323 -6.14218,9.70611 -6.53146,12.59165 -23.29073,43.2432 -29.68267,54.28753 -2.87366,4.96527 -5.94552,10.66527 -6.82634,12.66667 -0.88083,2.00139 -5.399,10.38889 -10.04039,18.63889 -7.09211,12.60611 -8.95005,15 -11.64175,15 -3.13338,0 -3.05466,-0.28192 3.62972,-13 z m 105.88307,3.51363 4.77726,-9.48637 -1.6307,-19.51363 -1.63071,-19.51363 12.04125,-22 c 6.62271,-12.1 14.2143,-25.80764 16.87022,-30.46142 2.65592,-4.65378 4.82894,-8.73004 4.82894,-9.05836 0,-0.32832 3.81695,-7.32068 8.4821,-15.53858 16.7825,-29.56322 27.5179,-48.94132 27.5179,-49.67161 0,-0.40912 3.50563,-6.86224 7.79027,-14.34027 4.28465,-7.47804 8.70062,-15.39642 9.81328,-17.59642 1.11265,-2.2 7.13253,-13.3 13.37749,-24.66667 6.24493,-11.36667 13.30423,-24.266666 15.68713,-28.666666 2.383,-4.4 9.1421,-16.7 15.0203,-27.333334 13.1962,-23.871469 23.1067,-41.879688 29.5342,-53.666666 4.0254,-7.3818431 5.5039,-9.0000002 8.2228,-9.0000002 3.0139,0 3.1725,0.2725231 1.7457,3 -0.8631,1.65 -2.6842,4.5926223 -4.0469,6.5391602 -1.3627,1.946539 -2.4819,4.346538 -2.4871,5.333333 -0.01,1.790499 5.1115,20.014065 14.6338,52.075131 4.1249,13.888516 4.7421,17.378253 3.4196,19.333333 -0.8877,1.31214 -3.337,5.685709 -5.443,9.719043 -2.1059,4.033336 -7.5764,13.933336 -12.1567,21.999996 -7.8317,13.7932 -8.7756,14.89885 -15.8501,18.56531 -4.1374,2.14425 -7.7668,4.54425 -8.0653,5.33333 -0.2986,0.78908 0.5838,9.5347 1.9607,19.4347 l 2.5036,18 -5.5765,10.66666 c -3.0671,5.86667 -9.0058,16.74571 -13.1972,24.17566 l -7.6206,13.509 3.2442,9.82433 c 1.7843,5.40339 7.8621,23.32435 13.5061,39.82435 18.2595,53.381 27.3176,80.42405 27.3176,81.55754 0,0.61002 -1.1151,1.10912 -2.4781,1.10912 -2.0181,0 -4.0904,-4.6397 -11.166,-25 -10.6111,-30.534 -17.8571,-51.92393 -26.7022,-78.82437 l -6.7377,-20.49104 -2.4513,3.15771 c -1.3483,1.73673 -5.0985,8.2577 -8.33386,14.49104 -3.23538,6.23333 -11.84322,22.13333 -19.12856,35.33333 l -13.24605,24 3.26164,8.66667 c 4.24301,11.27434 12.31543,35.7954 12.31543,37.40978 0,0.69128 -1.14326,1.25688 -2.54058,1.25688 -2.66244,0 -6.04244,-7.99162 -15.03218,-35.54185 l -3.98368,-12.20852 3.18857,-6.45815 c 3.34416,-6.77329 16.60536,-31.02976 25.03453,-45.79148 5.89116,-10.31697 20.09654,-36.11529 26.06314,-47.33333 2.3403,-4.4 7.5285,-13.80969 11.5294,-20.91044 l 7.2744,-12.91043 -1.8364,-15.08957 c -2.3516,-19.3226 -2.2326,-18.99401 -6.0065,-16.58757 -1.6632,1.06054 -5.451,3.33145 -8.4172,5.04646 -15.3705,8.8868 -16.5864,9.81968 -16.5966,12.73294 -0.011,3.13906 -4.72344,8.38528 -7.53225,8.38528 -3.61679,0 -8.57823,-3.26848 -9.29469,-6.12312 -1.16515,-4.64228 -0.1699,-7.35564 3.77818,-10.30048 3.0271,-2.2579 4.17963,-2.45495 6.95708,-1.18944 2.88664,1.31524 4.44186,0.88888 11.70518,-3.20895 4.6069,-2.59915 9.2763,-5.48561 10.3763,-6.41439 1.1,-0.92876 8.6741,-5.6731 16.8314,-10.54298 11.7053,-6.98806 15.2075,-9.77117 16.6157,-13.20415 0.9813,-2.39241 4.3578,-8.7181 7.5032,-14.0571 3.1454,-5.33899 7.4556,-13.147628 9.5782,-17.352516 l 3.8594,-7.645252 -2.3301,-9.376282 c -1.2815,-5.156955 -3.2817,-12.34832 -4.4449,-15.980812 -1.1632,-3.632492 -3.9905,-12.795995 -6.2829,-20.36334 -3.5058,-11.57249 -4.4723,-13.506354 -6.0824,-12.170074 -1.0529,0.873804 -1.9143,2.135819 -1.9143,2.804476 0,0.668658 -3.9,8.007952 -8.6667,16.309546 -4.7666,8.301593 -8.6666,15.447232 -8.6666,15.879197 0,0.431964 -3.2095,6.369201 -7.1323,13.19386 -8.2917,14.425731 -22.1947,39.571827 -28.2388,51.075137 -2.31187,4.4 -9.1679,17 -15.23564,28 -6.06774,11 -14.93387,27.2 -19.70251,36 -4.76864,8.8 -9.11327,16.6 -9.65472,17.33333 -0.54144,0.73334 -4.77204,8.53334 -9.40132,17.33334 -4.62928,8.8 -9.8664,18.31808 -11.63804,21.1513 -8.62397,13.79143 -8.53029,13.04154 -7.67445,61.4371 0.42872,24.24305 1.06369,46.32826 1.41104,49.07826 0.57357,4.54102 0.34333,5 -2.50815,5 -3.13668,0 -3.14054,-0.0213 -4.01576,-22.21294 -0.48182,-12.21712 -0.87605,-31.71712 -0.87605,-43.33334 0,-11.61621 -0.46512,-21.12038 -1.03359,-21.12038 -0.56848,0 -4.72784,6.8133 -9.24302,15.14068 l -8.20943,15.14066 1.89101,19.77346 1.89103,19.77344 -4.92504,8.41921 c -3.78881,6.47688 -5.634,8.41921 -7.99809,8.41921 -3.04884,0 -3.0354,-0.0748 1.7042,-9.48637 z m 213.24073,-22.53084 c -2.86,-3.16017 -3.179,-9.60361 -0.6277,-12.67771 1.2585,-1.51636 3.4364,-2.03998 7.2277,-1.73772 5.2466,0.4183 6.3468,-0.31228 33.1798,-22.03162 15.2643,-12.35536 28.1088,-23.45536 28.5435,-24.66667 0.4346,-1.21132 4.1988,-8.2024 8.3648,-15.53573 4.1661,-7.33334 8.4684,-15.13334 9.5608,-17.33334 1.0924,-2.2 5.3512,-10.03957 9.4639,-17.42128 l 7.4777,-13.42126 -17.2642,-53.2454 c -9.4954,-29.28496 -20.4866,-63.14539 -24.425,-75.24539 -17.2066,-52.863873 -22.4949,-70.5177278 -21.725,-72.5240854 0.4613,-1.2021151 2.3328,-2.1425808 4.2636,-2.1425808 2.7941,0 3.212,0.4101097 2.2213,2.1803368 -1.3525,2.4168329 -0.6205,5.0928119 12.5336,45.8196634 4.6187,14.3 12.3611,38.3 17.2053,53.333336 4.8443,15.03333 12.6124,39.03333 17.2626,53.33333 4.6501,14.3 10.0255,31.19945 11.9452,37.55433 l 3.4904,11.55434 -4.4867,8.44566 c -6.0285,11.34783 -26.2469,48.1923 -30.8601,56.23704 -2.0369,3.55191 -5.9338,8.07379 -8.66,10.04859 -5.405,3.91537 -19.8706,15.74088 -31.789,25.98731 -4.1545,3.57165 -9.8036,8.00138 -12.5536,9.84384 -3.2841,2.20026 -5,4.37137 -5,6.32626 0,8.12031 -10.2154,12.99126 -15.3489,7.31875 z m -368.04506,-5.92219 c -1.8,-1.8 -3.27274,-4.52726 -3.27274,-6.0606 0,-3.42765 5.67259,-9.33333 8.96496,-9.33333 1.59956,0 3.94287,-2.82408 6.91463,-8.33333 2.47232,-4.58334 7.33629,-13.43334 10.80884,-19.66667 11.05201,-19.83873 22.99457,-41.69707 28.17063,-51.56036 l 5.01708,-9.56036 -1.39831,-33.10631 c -0.76907,-18.20846 -1.61679,-33.33189 -1.8838,-33.6076 -0.67659,-0.6986 -21.92256,6.78607 -21.94825,7.73207 -0.012,0.42308 -1.19044,6.30972 -2.61988,13.08144 -2.32798,11.02831 -4.01868,14.78237 -16.2132,36 -18.99642,33.05248 -18.32592,31.60659 -17.50274,37.74388 0.9079,6.76892 -2.14113,10.61057 -8.42137,10.61057 -5.55236,0 -8.55525,-3.00289 -8.55525,-8.55525 0,-4.84517 3.37161,-8.77808 7.52528,-8.77808 1.95838,0 4.5664,-3.38795 10.0073,-13 4.04727,-7.15 11.29935,-19.9 16.11574,-28.33333 6.33469,-11.09182 9.36145,-18.05383 10.94189,-25.16806 1.20164,-5.40909 1.92869,-10.09081 1.61568,-10.40382 -0.31301,-0.31303 -5.8874,1.46384 -12.38751,3.94856 -6.5001,2.48473 -17.06838,6.5023 -23.48505,8.92794 -8.36916,3.16372 -11.66667,5.05164 -11.66667,6.6795 0,6.12201 -13.07314,9.48474 -15.95309,4.10353 -1.53265,-2.8638 -1.80414,-8.0982 -0.58484,-11.27567 1.02873,-2.68085 8.81656,-4.13694 12.26251,-2.29272 3.03449,1.62402 5.65317,0.8283 35.60876,-10.82009 10.26666,-3.99225 24.83468,-9.60776 32.37336,-12.47891 l 13.70669,-5.22026 5.12675,-8.66667 c 2.8197,-4.76667 6.30002,-11.06667 7.73406,-14 1.43404,-2.93333 6.00899,-11.17812 10.16658,-18.32176 4.15757,-7.143629 7.55922,-13.388005 7.55922,-13.876386 0,-0.488383 3.49933,-6.943592 7.77629,-14.344911 4.27696,-7.401319 8.99018,-15.856943 10.4738,-18.790276 4.06019,-8.027529 21.4233,-38.951003 26.76419,-47.6666665 3.00051,-4.8964294 5.59316,-7.6666667 7.17524,-7.6666667 1.36243,0 2.47715,0.4896164 2.47715,1.0880365 0,0.5984202 -4.8,9.2979237 -10.66667,19.3322297 -5.86667,10.034308 -10.66667,18.545834 -10.66667,18.914502 0,0.368669 -3.4913,6.819165 -7.75846,14.334436 -8.86302,15.609425 -22.3787,40.008622 -27.98583,50.521422 -2.0953,3.92849 -8.06052,15.0088 -13.25604,24.62291 l -9.44638,17.48021 1.44564,37.19417 1.44564,37.19418 -3.34396,5.32561 c -1.83919,2.92909 -5.72939,9.82563 -8.64488,15.32563 -7.37484,13.91241 -23.76159,43.80976 -31.34355,57.18578 -4.89317,8.63248 -6.04811,11.73207 -5.05965,13.57902 0.70445,1.31626 1.28081,3.35994 1.28081,4.54148 0,3.06905 -6.03848,8.69372 -9.33333,8.69372 -1.53334,0 -4.2606,-1.47274 -6.0606,-3.27274 z M 1114.3987,275.0871 c -3.2358,-3.57553 -2.8388,-10.30101 0.7567,-12.81941 1.6298,-1.14157 3.8798,-2.08823 5,-2.10367 1.1732,-0.0161 4.9272,-5.24489 8.8548,-12.33333 3.7499,-6.76789 10.3184,-18.60527 14.5967,-26.30527 4.2783,-7.7 9.6363,-17.6 11.9069,-22 2.2705,-4.4 5.7204,-10.7 7.6666,-14 l 3.5384,-6 -5.0659,-17.33333 c -2.7862,-9.53333 -8.7534,-29.93333 -13.2604,-45.33333 -4.507,-15.4 -10.3252,-35.500003 -12.9292,-44.66667 -2.604,-9.166666 -6.5757,-22.593234 -8.826,-29.836818 l -4.0914,-13.170152 -4.2609,7.836818 c -2.3436,4.310251 -7.0206,12.764811 -10.3935,18.787911 l -6.1325,10.951093 3.2541,14.38224 c 6.6504,29.393638 15.0265,66.973818 19.2025,86.154358 l 4.3048,19.77212 -6.8554,13.23108 c -5.0802,9.80472 -6.639,14.09346 -6.0197,16.56122 1.3569,5.406 -0.3982,9.51242 -4.8545,11.35828 -3.6157,1.49766 -4.5265,1.38328 -7.6837,-0.96499 -6.4615,-4.80596 -4.9801,-12.44596 3.0651,-15.80745 5.8946,-2.46294 16.8031,-21.7231 15.8146,-27.92238 -1.8675,-11.71101 -15.7417,-70 -16.6618,-70 -0.5933,0 -2.3582,2.55 -3.922,5.66667 -1.5639,3.11667 -5.7024,10.76667 -9.1968,17 -18.8747,33.66901 -20.2152,36.49805 -18.7836,39.64012 2.6044,5.71615 -2.2581,12.35988 -9.0461,12.35988 -3.0803,0 -8.1844,-5.90043 -8.1844,-9.4612 0,-2.98588 5.0188,-7.87213 8.0857,-7.87213 2.2665,0 8.7285,-10.4004 21.9534,-35.33334 3.5008,-6.6 8.7706,-16.09734 11.7107,-21.1052 6.3167,-10.75899 6.4197,-12.96453 1.5654,-33.508924 l -3.3856,-14.328287 3.7725,-7.528792 c 4.2017,-8.38528 9.004,-17.006575 15.9576,-28.647787 5.0196,-8.403553 5.0941,-9.935432 1.1007,-22.6355145 -1.9832,-6.3070089 -1.9691,-6.4136866 0.7906,-6 2.9912,0.448367 5.4066,7.8532547 28.4073,87.0878415 4.8962,16.866663 12.7585,43.690083 17.4719,59.607603 4.7134,15.9175 8.5698,29.79176 8.5698,30.83166 0,1.03991 -3.9,8.64224 -8.6667,16.89407 -4.7667,8.25183 -8.6667,15.33873 -8.6667,15.74868 0,0.40995 -3.2214,6.4842 -7.1587,13.49833 -17.4814,31.14246 -20.4804,37.17895 -19.3541,38.9562 5.1824,8.17751 -7.4552,17.86538 -13.9472,10.6918 z M 928.13311,187.45438 c -2.18183,-2.62894 -2.22143,-9.18126 -0.0712,-11.77221 0.90622,-1.09193 3.25829,-2.33908 5.22681,-2.77144 2.66357,-0.58503 4.60115,-2.73279 7.57453,-8.39624 2.19748,-4.18557 7.34697,-13.6204 11.44333,-20.96627 16.46918,-29.53363 24.55568,-44.343175 27.67816,-50.689463 1.80406,-3.666667 4.59162,-8.766667 6.19456,-11.333333 1.60294,-2.566667 5.78188,-10.066667 9.28654,-16.666667 5.90396,-11.11844 9.33706,-17.386472 27.91826,-50.971933 5.4572,-9.8638662 7.4085,-12.3108352 9.835,-12.3333334 l 3.0272,-0.028067 -2.8709,5.6666667 c -1.5789,3.1166667 -6.6911,12.4126577 -11.3604,20.6577577 -4.6693,8.2451 -8.4896,15.273869 -8.4896,15.619488 0,0.345618 -3.2149,6.199628 -7.1442,13.008909 -3.9294,6.809281 -8.34631,14.780512 -9.81544,17.713845 -1.46914,2.933334 -5.25483,9.833334 -8.41264,15.333334 -3.15783,5.5 -7.51206,13.599996 -9.67607,17.999996 -2.16403,4.4 -4.96877,9.5 -6.23279,11.33334 -1.26401,1.83333 -5.65008,9.63333 -9.7468,17.33333 -4.09672,7.7 -10.41538,19.27013 -14.04149,25.7114 -5.85296,10.39697 -6.51772,12.37859 -5.92289,17.65591 0.42008,3.72688 0.0475,6.69462 -0.99875,7.95526 -2.20761,2.66002 -11.17706,2.61966 -13.40122,-0.0603 z M 911.7982,131.85876 c -1.23028,-0.91667 -2.60745,-3.55417 -3.0604,-5.86111 -1.01787,-5.18437 2.95887,-9.80102 8.45427,-9.81467 2.7397,-0.007 4.50936,-1.26245 7,-4.96679 1.83333,-2.72673 10.83333,-14.89123 19.99999,-27.032228 9.16667,-12.140997 18.30552,-24.45594 20.30856,-27.366538 2.00304,-2.9106 5.21848,-7.092 7.14542,-9.292 1.92694,-2.2 5.83517,-7.41279 8.68497,-11.583978 2.8498,-4.171188 5.71001,-7.910649 6.35604,-8.309916 0.64603,-0.399265 3.18195,-6.436474 5.6354,-13.416021 3.74947,-10.6664572 4.91397,-12.6900852 7.30255,-12.6900852 2.8063,0 2.7901,0.1542159 -1.30622,12.3866692 -3.68882,11.015661 -5.84392,14.65478 -19.47066,32.878424 -8.4275,11.270467 -16.20383,21.746465 -17.28075,23.279999 -1.07692,1.533532 -5.60395,7.588241 -10.06007,13.454908 -4.45612,5.866666 -8.97499,11.941572 -10.04197,13.499789 -1.06696,1.558217 -5.08993,6.897697 -8.93993,11.865507 -5.89712,7.6093 -7,9.91382 -7,14.6269 0,8.57433 -7.38861,13.06392 -13.7272,8.34114 z M 714.26767,114.56208 c -2.98319,-4.25909 -2.56049,-8.71461 1.15328,-12.15641 3.04813,-2.824917 3.43212,-4.967133 6.85965,-38.269669 l 3.63078,-35.277244 7.47368,-13.645437 c 6.03209,-11.0133915 8.05234,-13.6495322 10.47368,-13.6666668 3.76848,-0.026667 3.75505,0.8945359 -0.0972,6.6692579 -11.5538,17.3198059 -11.47112,17.0230469 -15.50623,55.6581899 -3.6432,34.882799 -3.66965,35.71066 -1.22671,38.403929 3.18275,3.50885 3.21267,10.18622 0.0584,13.04074 -3.57553,3.23581 -10.30101,2.83883 -12.81941,-0.75669 z m 40.13105,-36.808311 c -2.71426,-2.99922 -2.88252,-10.007568 -0.29189,-12.157599 1.05311,-0.874009 3.60311,-2.040629 5.66667,-2.592489 2.71358,-0.725703 4.67438,-2.827897 7.08524,-7.596193 1.83333,-3.626046 7.00076,-13.182894 11.48318,-21.237438 4.48242,-8.054545 10.36178,-18.694626 13.06526,-23.644626 4.03052,-7.379803 5.51217,-9.0000002 8.23038,-9.0000002 3.67099,0 3.52638,0.5561136 -2.7737,10.6666662 -1.59934,2.566667 -5.46408,9.466667 -8.58831,15.333334 -3.12424,5.866666 -8.95728,16.468762 -12.96233,23.560214 -6.35024,11.24389 -7.16722,13.504995 -6.38538,17.67255 1.26623,6.749581 -1.9675,11.433902 -7.8932,11.433902 -2.59768,0 -5.34176,-1.00829 -6.63592,-2.438321 z M 860.19207,76.19209 c -5.30894,-5.308938 -1.781,-14.666666 5.52945,-14.666666 1.53911,0 5.19811,-5.43959 11.36999,-16.903003 5.0053,-9.296651 12.1855,-22.646651 15.95598,-29.666667 5.83882,-10.8708907 7.39927,-12.828937 10.52264,-13.2038268 l 3.6672,-0.4401633 -3.35905,5.7734966 c -1.84748,3.1754235 -6.24264,11.1734965 -9.76703,17.7734965 -3.52437,6.6 -9.62464,17.617403 -13.55613,24.483116 -6.51395,11.375503 -7.07211,12.990519 -6.29064,18.201684 0.71021,4.736057 0.37677,6.199347 -1.94076,8.516884 -3.52949,3.529491 -8.67795,3.585361 -12.13165,0.131649 z M 803.601,62.562082 c -1.14157,-1.629838 -2.0756,-4.216701 -2.0756,-5.748585 0,-3.572192 4.68279,-8.621407 7.99574,-8.621407 2.75073,0 2.95182,-0.31421 18.55958,-29 7.22479,-13.2785705 10.25385,-17.6666662 12.19517,-17.6666662 1.42056,0 2.58284,0.2820549 2.58284,0.6267887 0,1.0273329 -8.22405,17.0055675 -11.344,22.0398775 -1.59065,2.566667 -5.32582,9.223103 -8.30037,14.79208 -4.6488,8.703544 -5.31382,10.963263 -4.73576,16.091904 0.82014,7.276142 -1.70225,10.44935 -8.30616,10.44935 -3.13437,0 -5.12437,-0.89738 -6.57144,-2.963342 z"
         id="path333" />
      <path
         style="fill:#c53886;stroke-width:1.33333"
         d="m 785.7194,348.52542 c 3.75791,-7.15 7.2812,-13.6 7.82955,-14.33333 0.54833,-0.73333 5.06343,-8.83333 10.03355,-18 4.9701,-9.16667 13.82409,-25.36667 19.67553,-36 5.85144,-10.63333 12.55834,-22.93333 14.90422,-27.33333 6.87664,-12.89799 25.90466,-47.24764 31.51942,-56.8993 2.84738,-4.89461 5.17706,-9.22626 5.17706,-9.62588 0,-0.39961 3.06256,-6.10209 6.80571,-12.67217 4.84273,-8.50012 7.37107,-11.72864 8.76585,-11.19341 2.86552,1.09961 1.43098,5.2257 -6.7398,19.38513 -3.91613,6.78643 -8.31382,14.73896 -9.77264,17.67229 -1.45881,2.93334 -6.98872,13.24948 -12.28869,22.92478 l -9.63629,17.59142 1.49754,9.74191 c 0.82366,5.35804 3.56438,22.4172 6.09048,37.90925 l 4.59292,28.16736 -11.40552,21.12732 c -6.27302,11.62003 -12.04238,21.89472 -12.82078,22.83264 -1.40214,1.68947 -6.42211,2.41903 -6.42211,0.93335 0,-1.02432 8.94172,-17.66145 16.91753,-31.47709 5.79246,-10.03363 6.37763,-11.81522 6.1737,-18.79583 -0.33792,-11.56689 -8.63126,-59.77509 -10.19362,-59.25431 -0.73645,0.24548 -3.50044,4.61323 -6.14218,9.70611 -6.53146,12.59165 -23.29073,43.2432 -29.68267,54.28753 -2.87366,4.96527 -5.94552,10.66527 -6.82634,12.66667 -0.88083,2.00139 -5.399,10.38889 -10.04039,18.63889 -7.09211,12.60611 -8.95005,15 -11.64175,15 -3.13338,0 -3.05466,-0.28192 3.62972,-13 z m 105.88307,3.51363 4.77726,-9.48637 -1.6307,-19.51363 -1.63071,-19.51363 12.04125,-22 c 6.62271,-12.1 14.2143,-25.80764 16.87022,-30.46142 2.65592,-4.65378 4.82894,-8.76326 4.82894,-9.13216 0,-0.3689 3.20934,-6.16126 7.13184,-12.87191 3.92252,-6.71064 9.39684,-16.55117 12.16516,-21.86784 5.25429,-10.09107 5.53364,-10.36619 8.57223,-8.44237 1.54248,0.97658 1.2839,2.19665 -1.47919,6.97958 -1.84163,3.18787 -6.8366,12.39612 -11.09993,20.46279 -4.26333,8.06667 -9.1982,16.98475 -10.96637,19.81797 -8.61948,13.81128 -8.52392,13.04564 -7.66815,61.4371 0.42872,24.24305 1.06369,46.32826 1.41104,49.07826 0.57357,4.54102 0.34333,5 -2.50815,5 -3.13668,0 -3.14054,-0.0213 -4.01576,-22.21294 -0.48182,-12.21712 -0.87605,-31.71712 -0.87605,-43.33334 0,-11.61621 -0.46512,-21.12038 -1.03359,-21.12038 -0.56848,0 -4.72784,6.8133 -9.24302,15.14068 l -8.20943,15.14066 1.89101,19.77346 1.89103,19.77344 -4.92504,8.41921 c -3.78881,6.47688 -5.634,8.41921 -7.99809,8.41921 -3.04884,0 -3.0354,-0.0748 1.7042,-9.48637 z m 80.59359,-2.18029 c -2.33649,-6.41667 -6.01546,-17.03876 -8.17546,-23.60466 -4.4146,-13.4193 -4.34786,-13.93104 3.57316,-27.39534 4.06753,-6.9141 8.89144,-15.70816 29.62118,-54 4.76396,-8.8 8.86406,-16.23128 9.11116,-16.51395 0.2472,-0.28267 1.8184,0.38305 3.4916,1.47939 1.8518,1.21334 4.1714,5.32741 5.928,10.51394 1.5872,4.68634 7.4994,22.02062 13.1382,38.52062 18.6079,54.44933 27.3082,80.43338 27.3082,81.55754 0,0.61002 -1.1151,1.10912 -2.4781,1.10912 -2.0181,0 -4.0904,-4.6397 -11.166,-25 -10.6111,-30.534 -17.8571,-51.92393 -26.7022,-78.82437 l -6.7377,-20.49104 -2.4513,3.15771 c -1.3483,1.73673 -5.0985,8.2577 -8.33386,14.49104 -3.23538,6.23333 -11.84322,22.13333 -19.12856,35.33333 l -13.24605,24 3.26164,8.66667 c 4.24301,11.27434 12.31543,35.7954 12.31543,37.40978 0,0.69128 -1.14326,1.25688 -2.54058,1.25688 -1.98129,0 -3.47574,-2.56825 -6.78876,-11.66666 z m 132.64714,-20.35055 c -2.8658,-3.16667 -3.1774,-9.60544 -0.6144,-12.69376 1.2977,-1.56355 3.3551,-2.03707 7.2222,-1.6622 4.9389,0.47875 6.2083,-0.13528 14.6426,-7.08263 7.7364,-6.37258 9.6207,-7.36581 11.6132,-6.12146 2.1461,1.34026 2.1787,1.70602 0.3336,3.74481 -1.1246,1.24271 -5.6006,4.84888 -9.9466,8.01371 -5.3913,3.92604 -7.9017,6.66048 -7.9017,8.60666 0,8.01018 -10.2591,12.81914 -15.3489,7.19487 z m -368.04506,-5.92219 c -1.8,-1.8 -3.27274,-4.52726 -3.27274,-6.0606 0,-3.42765 5.67259,-9.33333 8.96496,-9.33333 1.59956,0 3.94287,-2.82408 6.91463,-8.33333 2.47232,-4.58334 7.33629,-13.43334 10.80884,-19.66667 11.05201,-19.83873 22.99457,-41.69707 28.17063,-51.56036 l 5.01708,-9.56036 -1.39831,-33.10631 c -0.76907,-18.20846 -1.61679,-33.33189 -1.8838,-33.6076 -0.67659,-0.6986 -21.92256,6.78607 -21.94825,7.73207 -0.012,0.42308 -1.19044,6.30972 -2.61988,13.08144 -2.32798,11.02831 -4.01868,14.78237 -16.2132,36 -18.99642,33.05248 -18.32592,31.60659 -17.50274,37.74388 0.9079,6.76892 -2.14113,10.61057 -8.42137,10.61057 -5.55236,0 -8.55525,-3.00289 -8.55525,-8.55525 0,-4.84517 3.37161,-8.77808 7.52528,-8.77808 1.95838,0 4.5664,-3.38795 10.0073,-13 4.04727,-7.15 11.29935,-19.9 16.11574,-28.33333 6.33469,-11.09182 9.36145,-18.05383 10.94189,-25.16806 1.20164,-5.40909 1.92869,-10.09081 1.61568,-10.40382 -0.31301,-0.31303 -5.8874,1.46384 -12.38751,3.94856 -6.5001,2.48473 -17.06838,6.5023 -23.48505,8.92794 -8.36916,3.16372 -11.66667,5.05164 -11.66667,6.6795 0,6.12201 -13.07314,9.48474 -15.95309,4.10353 -1.53265,-2.8638 -1.80414,-8.0982 -0.58484,-11.27567 1.02873,-2.68085 8.81656,-4.13694 12.26251,-2.29272 3.03449,1.62402 5.65317,0.8283 35.60876,-10.82009 10.26666,-3.99225 24.84334,-9.60776 32.39261,-12.47891 l 13.72596,-5.22026 5.86264,-10 c 3.22445,-5.5 6.29092,-11.2 6.81436,-12.66667 1.57601,-4.41593 3.16476,-5.76072 5.94636,-5.03332 2.43444,0.63662 2.017,1.88494 -5.26921,15.75728 l -7.91312,15.06587 1.44248,37.1128 1.44248,37.1128 -3.34396,5.32561 c -1.83919,2.92909 -5.72939,9.82563 -8.64488,15.32563 -7.37484,13.91241 -23.76159,43.80976 -31.34355,57.18578 -4.89317,8.63248 -6.04811,11.73207 -5.05965,13.57902 0.70445,1.31626 1.28081,3.35994 1.28081,4.54148 0,3.06905 -6.03848,8.69372 -9.33333,8.69372 -1.53334,0 -4.2606,-1.47274 -6.0606,-3.27274 z M 1201.7672,221.15008 c -1.0402,-1.25335 -0.3753,-3.61568 2.4951,-8.86463 l 3.9133,-7.15592 -17.3347,-53.46872 c -9.534,-29.4078 -20.5572,-63.36872 -24.4959,-75.46872 -17.1981,-52.834005 -22.4955,-70.5175503 -21.7255,-72.5240854 0.4613,-1.2021151 2.3328,-2.1425808 4.2636,-2.1425808 2.7941,0 3.212,0.4101097 2.2213,2.1803368 -1.3525,2.4168329 -0.6205,5.0928119 12.5336,45.8196634 4.6187,14.3 12.3611,38.3 17.2053,53.333336 4.8443,15.03333 12.6124,39.03333 17.2626,53.33333 4.6501,14.3 10.0085,31.14487 11.9074,37.43303 l 3.4526,11.43302 -4.7261,8.90031 c -2.5994,4.89517 -4.9125,8.90031 -5.1403,8.90031 -0.2279,0 -1.0524,-0.76891 -1.8323,-1.70868 z m -43.269,-24.4296 c -0.4934,-0.49343 1.1538,-4.56448 3.6604,-9.0468 l 4.5576,-8.14967 -5.0646,-17.33263 c -2.7855,-9.53294 -8.7521,-29.93262 -13.2591,-45.33262 -4.507,-15.4 -10.3252,-35.500003 -12.9292,-44.66667 -2.604,-9.166666 -6.5757,-22.593234 -8.826,-29.836818 l -4.0914,-13.170152 -4.2609,7.836818 c -2.3436,4.310251 -7.0206,12.764811 -10.3935,18.787911 l -6.1325,10.951093 3.2541,14.38224 c 17.3465,76.668238 21.1395,94.866118 20.0088,95.996838 -2.3934,2.39343 -5.1249,-5.41341 -11.5206,-32.92756 -3.9233,-16.87787 -7.5738,-30.68704 -8.1122,-30.68704 -0.5384,0 -3.8243,5.25 -7.3021,11.66667 -3.4777,6.41667 -8.3884,15.4572 -10.9127,20.09008 -3.2293,5.92689 -5.1741,8.19912 -6.5616,7.66667 -1.0847,-0.41622 -2.244,-0.75675 -2.5764,-0.75675 -0.7173,0 10.6958,-21.66344 19.2193,-36.4802 7.0654,-12.28221 7.1744,-13.96685 2.2517,-34.800594 l -3.3856,-14.328287 3.7725,-7.528792 c 4.2017,-8.38528 9.004,-17.006575 15.9576,-28.647787 5.0196,-8.403553 5.0941,-9.935432 1.1007,-22.6355145 -1.9832,-6.3070089 -1.9691,-6.4136866 0.7906,-6 2.9867,0.4476903 5.4812,8.0895818 28.2101,86.4211745 4.7876,16.5 12.7736,43.75505 17.7465,60.56677 l 9.0416,30.56678 -4.7854,8.76656 c -4.4665,8.1825 -7.3096,10.7763 -9.4577,8.62828 z M 928.16532,187.4932 c -2.78893,-3.36047 -0.37829,-3.82154 4.30419,-0.82323 l 4.38922,2.81053 -3.50341,0.0224 c -1.92687,0.012 -4.26237,-0.89202 -5.19,-2.00976 z m 116.24828,-55.11723 c -1.4558,-0.93818 -1.4253,-1.28164 0.1683,-1.89316 1.8058,-0.69296 4.0672,-4.57436 20.1723,-34.624053 l 5.8954,-11 -2.3753,-9.333333 c -1.3064,-5.133334 -4.2964,-15.633334 -6.6445,-23.333334 -8.3064,-27.239366 -8.1808,-26.929758 -10.2309,-25.22834 -1.0304,0.855172 -1.8735,2.101943 -1.8735,2.7706 0,0.668658 -3.9,8.007952 -8.6667,16.309546 -4.7666,8.301593 -8.6666,15.462636 -8.6666,15.913428 0,0.450792 -2.8988,5.788029 -6.4418,11.860528 -3.5429,6.072497 -9.3137,16.440905 -12.8239,23.040905 -3.5102,6.600003 -6.5662,12.204783 -6.7911,12.455073 -0.2249,0.25029 -1.585,0.0818 -3.0225,-0.37443 -2.8854,-0.9158 -4.13843,1.69639 21.4642,-44.74731 16.2822,-29.536145 24.1239,-43.799757 29.5044,-53.666666 4.0254,-7.3818431 5.5039,-9.0000002 8.2228,-9.0000002 3.0139,0 3.1725,0.2725231 1.7457,3 -0.8631,1.65 -2.6842,4.5926223 -4.0469,6.5391602 -1.3627,1.946539 -2.4819,4.346538 -2.4871,5.333333 -0.01,1.790499 5.1115,20.014065 14.6338,52.075131 4.1331,13.91599 4.7436,17.374385 3.4129,19.333333 -0.8913,1.31214 -4.7595,8.315456 -8.596,15.562929 -14.5853,27.55287 -17.998,31.94209 -22.553,29.00666 z M 714.26767,114.56208 c -2.98312,-4.25901 -2.56051,-8.71459 1.15303,-12.15618 2.84446,-2.636158 3.42784,-4.925119 4.90282,-19.236939 1.3312,-12.916808 2.02356,-15.954787 3.37963,-14.829356 0.93799,0.778465 2.20216,1.108399 2.80928,0.733184 0.60711,-0.375213 0.42663,6.323133 -0.40107,14.885215 -1.39886,14.470537 -1.33161,15.761368 0.95458,18.320026 3.14972,3.52511 3.16054,10.19963 0.0212,13.04074 -3.57554,3.23581 -10.30102,2.83883 -12.81942,-0.75669 z M 980.59218,96.664644 c -1.9247,-0.782274 -0.63786,-4.681428 3.98494,-12.074399 1.74185,-2.785652 6.33484,-11.064821 10.20662,-18.398155 3.87179,-7.333333 10.35906,-19.333333 14.41606,-26.666666 4.0571,-7.333334 10.44,-18.870703 14.1844,-25.6386 5.4572,-9.8638662 7.4084,-12.3108352 9.835,-12.3333334 l 3.0271,-0.028067 -2.8709,5.6666667 c -1.5789,3.1166667 -6.6911,12.4126577 -11.3604,20.6577577 -4.6693,8.2451 -8.4896,15.273869 -8.4896,15.619488 0,0.345618 -3.19,6.199628 -7.089,13.008909 -3.8989,6.809281 -10.59464,18.830512 -14.87943,26.713845 -4.28479,7.883334 -8.14476,14.285966 -8.57772,14.228071 -0.43295,-0.05789 -1.50713,-0.397877 -2.38707,-0.755517 z M 950.15537,78.799397 c -0.4734,-0.765983 1.7412,-4.815983 4.92132,-9 3.18012,-4.184019 7.40952,-10.007307 9.39867,-12.94064 1.98914,-2.933333 5.20458,-7.133333 7.14541,-9.333333 1.94084,-2.2 5.86044,-7.41279 8.71024,-11.583978 2.8498,-4.171188 5.71001,-7.910649 6.35604,-8.309916 0.64603,-0.399265 3.18195,-6.436474 5.6354,-13.416021 3.74947,-10.6664572 4.91397,-12.6900852 7.30255,-12.6900852 2.8067,0 2.7906,0.1527062 -1.30022,12.3687412 -3.54797,10.595033 -6.03529,14.944907 -17.34506,30.333333 -7.26172,9.880526 -14.75966,19.861234 -16.66206,22.179351 -1.90241,2.318116 -4.95893,6.351599 -6.79226,8.963295 -3.38303,4.819332 -5.81232,5.949673 -7.37003,3.429253 z M 914.17313,58.828122 c -0.46364,-0.750182 1.22648,-5.100182 3.75582,-9.666666 2.52934,-4.566484 7.15185,-13.102699 10.27224,-18.969366 11.1873,-21.0333002 16.19589,-28.6666662 18.8095,-28.6666662 1.38308,0 2.51471,0.2487423 2.51471,0.5527607 0,0.5420183 -5.69868,11.1583905 -22.78151,42.4408725 -8.03782,14.719063 -10.55004,17.578661 -12.57076,14.309065 z m -32.5362,-18.538884 c -1.53958,-0.974524 -0.90734,-2.879713 3.42236,-10.312916 2.92095,-5.014661 7.37076,-13.239433 9.88847,-18.277272 4.61924,-9.2429458 6.1118,-10.76610167 9.75311,-9.9530576 1.54098,0.3440779 0.60917,2.8855053 -4.07454,11.1127646 -3.33982,5.866667 -8.17853,14.716667 -10.75266,19.666667 -4.89944,9.4215 -5.18806,9.69355 -8.23674,7.763814 z M 857.18556,27.407805 c -0.43136,-0.431356 2.44021,-6.281356 6.38128,-12.999999 4.81556,-8.2094675 8.06084,-12.3554481 9.8954,-12.6417835 1.5014,-0.2343373 2.72983,0.022694 2.72983,0.5711798 0,0.5484863 -3.15,6.5775868 -7,13.3980017 -6.36547,11.276664 -9.42652,14.252585 -12.00651,11.672601 z M 834.43813,13.316548 c -2.06678,-1.156632 -2.00592,-1.683411 0.75267,-6.5144869 1.68988,-2.9594904 4.0208,-5.2605855 5.3346,-5.2663678 2.97964,-0.013114 2.94809,0.2903812 -0.75265,7.2422288 -2.51386,4.7222679 -3.50288,5.5637139 -5.33462,4.5386259 z"
         id="path331" />
      <path
         style="fill:#8f5698;stroke-width:1.33333"
         d="m 785.7194,348.52542 c 3.75791,-7.15 7.2812,-13.6 7.82955,-14.33333 0.54833,-0.73333 5.06343,-8.83333 10.03355,-18 4.9701,-9.16667 13.82409,-25.36667 19.67553,-36 5.85144,-10.63333 12.55834,-22.93333 14.90422,-27.33333 6.87664,-12.89799 25.90466,-47.24764 31.51942,-56.8993 2.84738,-4.89461 5.17706,-9.22626 5.17706,-9.62588 0,-0.39961 3.06256,-6.10209 6.80571,-12.67217 4.84273,-8.50012 7.37107,-11.72864 8.76585,-11.19341 2.86552,1.09961 1.43098,5.2257 -6.7398,19.38513 -3.91613,6.78643 -8.31382,14.73896 -9.77264,17.67229 -1.45881,2.93334 -6.98872,13.24948 -12.28869,22.92478 l -9.63629,17.59142 1.49754,9.74191 c 0.82366,5.35804 3.56438,22.4172 6.09048,37.90925 l 4.59292,28.16736 -11.40552,21.12732 c -6.27302,11.62003 -12.04238,21.89472 -12.82078,22.83264 -1.40214,1.68947 -6.42211,2.41903 -6.42211,0.93335 0,-1.02432 8.94172,-17.66145 16.91753,-31.47709 5.79246,-10.03363 6.37763,-11.81522 6.1737,-18.79583 -0.33792,-11.56689 -8.63126,-59.77509 -10.19362,-59.25431 -0.73645,0.24548 -3.50044,4.61323 -6.14218,9.70611 -6.53146,12.59165 -23.29073,43.2432 -29.68267,54.28753 -2.87366,4.96527 -5.94552,10.66527 -6.82634,12.66667 -0.88083,2.00139 -5.399,10.38889 -10.04039,18.63889 -7.09211,12.60611 -8.95005,15 -11.64175,15 -3.13338,0 -3.05466,-0.28192 3.62972,-13 z m 105.88307,3.51363 4.77726,-9.48637 -1.6307,-19.51363 -1.63071,-19.51363 12.04125,-22 c 6.62271,-12.1 14.2143,-25.80764 16.87022,-30.46142 2.65592,-4.65378 4.82894,-8.76326 4.82894,-9.13216 0,-0.3689 3.20934,-6.16126 7.13184,-12.87191 3.92252,-6.71064 9.39684,-16.55117 12.16516,-21.86784 5.25429,-10.09107 5.53364,-10.36619 8.57223,-8.44237 1.54248,0.97658 1.2839,2.19665 -1.47919,6.97958 -1.84163,3.18787 -6.8366,12.39612 -11.09993,20.46279 -4.26333,8.06667 -9.1982,16.98475 -10.96637,19.81797 -8.61948,13.81128 -8.52392,13.04564 -7.66815,61.4371 0.42872,24.24305 1.06369,46.32826 1.41104,49.07826 0.57357,4.54102 0.34333,5 -2.50815,5 -3.13668,0 -3.14054,-0.0213 -4.01576,-22.21294 -0.48182,-12.21712 -0.87605,-31.71712 -0.87605,-43.33334 0,-11.61621 -0.46512,-21.12038 -1.03359,-21.12038 -0.56848,0 -4.72784,6.8133 -9.24302,15.14068 l -8.20943,15.14066 1.89101,19.77346 1.89103,19.77344 -4.92504,8.41921 c -3.78881,6.47688 -5.634,8.41921 -7.99809,8.41921 -3.04884,0 -3.0354,-0.0748 1.7042,-9.48637 z m 80.59359,-2.18029 c -2.33649,-6.41667 -6.01546,-17.03876 -8.17546,-23.60466 -4.4146,-13.4193 -4.34786,-13.93104 3.57316,-27.39534 4.06753,-6.9141 8.89144,-15.70816 29.62118,-54 4.76396,-8.8 8.86406,-16.23128 9.11116,-16.51395 0.2472,-0.28267 1.8184,0.38305 3.4916,1.47939 1.8518,1.21334 4.1714,5.32741 5.928,10.51394 1.5872,4.68634 7.4994,22.02062 13.1382,38.52062 18.6079,54.44933 27.3082,80.43338 27.3082,81.55754 0,0.61002 -1.1151,1.10912 -2.4781,1.10912 -2.0181,0 -4.0904,-4.6397 -11.166,-25 -10.6111,-30.534 -17.8571,-51.92393 -26.7022,-78.82437 l -6.7377,-20.49104 -2.4513,3.15771 c -1.3483,1.73673 -5.0985,8.2577 -8.33386,14.49104 -3.23538,6.23333 -11.84322,22.13333 -19.12856,35.33333 l -13.24605,24 3.26164,8.66667 c 4.24301,11.27434 12.31543,35.7954 12.31543,37.40978 0,0.69128 -1.14326,1.25688 -2.54058,1.25688 -1.98129,0 -3.47574,-2.56825 -6.78876,-11.66666 z m 132.64714,-20.35055 c -2.8658,-3.16667 -3.1774,-9.60544 -0.6144,-12.69376 1.2977,-1.56355 3.3551,-2.03707 7.2222,-1.6622 4.9389,0.47875 6.2083,-0.13528 14.6426,-7.08263 7.7364,-6.37258 9.6207,-7.36581 11.6132,-6.12146 2.1461,1.34026 2.1787,1.70602 0.3336,3.74481 -1.1246,1.24271 -5.6006,4.84888 -9.9466,8.01371 -5.3913,3.92604 -7.9017,6.66048 -7.9017,8.60666 0,8.01018 -10.2591,12.81914 -15.3489,7.19487 z m -368.04506,-5.92219 c -1.8,-1.8 -3.27274,-4.52726 -3.27274,-6.0606 0,-3.42765 5.67259,-9.33333 8.96496,-9.33333 1.59956,0 3.94287,-2.82408 6.91463,-8.33333 2.47232,-4.58334 7.33629,-13.43334 10.80884,-19.66667 11.05201,-19.83873 22.99457,-41.69707 28.17063,-51.56036 l 5.01708,-9.56036 -1.39831,-33.10631 c -0.76907,-18.20846 -1.61679,-33.33189 -1.8838,-33.6076 -0.67659,-0.6986 -21.92256,6.78607 -21.94825,7.73207 -0.012,0.42308 -1.19044,6.30972 -2.61988,13.08144 -2.32798,11.02831 -4.01868,14.78237 -16.2132,36 -18.99642,33.05248 -18.32592,31.60659 -17.50274,37.74388 0.9079,6.76892 -2.14113,10.61057 -8.42137,10.61057 -5.55236,0 -8.55525,-3.00289 -8.55525,-8.55525 0,-4.84517 3.37161,-8.77808 7.52528,-8.77808 1.95838,0 4.5664,-3.38795 10.0073,-13 4.04727,-7.15 11.29935,-19.9 16.11574,-28.33333 6.33469,-11.09182 9.36145,-18.05383 10.94189,-25.16806 1.20164,-5.40909 1.92869,-10.09081 1.61568,-10.40382 -0.31301,-0.31303 -5.8874,1.46384 -12.38751,3.94856 -6.5001,2.48473 -17.06838,6.5023 -23.48505,8.92794 -8.36916,3.16372 -11.66667,5.05164 -11.66667,6.6795 0,6.12201 -13.07314,9.48474 -15.95309,4.10353 -1.53265,-2.8638 -1.80414,-8.0982 -0.58484,-11.27567 1.02873,-2.68085 8.81656,-4.13694 12.26251,-2.29272 3.03449,1.62402 5.65317,0.8283 35.60876,-10.82009 10.26666,-3.99225 24.84334,-9.60776 32.39261,-12.47891 l 13.72596,-5.22026 5.86264,-10 c 3.22445,-5.5 6.29092,-11.2 6.81436,-12.66667 1.57601,-4.41593 3.16476,-5.76072 5.94636,-5.03332 2.43444,0.63662 2.017,1.88494 -5.26921,15.75728 l -7.91312,15.06587 1.44248,37.1128 1.44248,37.1128 -3.34396,5.32561 c -1.83919,2.92909 -5.72939,9.82563 -8.64488,15.32563 -7.37484,13.91241 -23.76159,43.80976 -31.34355,57.18578 -4.89317,8.63248 -6.04811,11.73207 -5.05965,13.57902 0.70445,1.31626 1.28081,3.35994 1.28081,4.54148 0,3.06905 -6.03848,8.69372 -9.33333,8.69372 -1.53334,0 -4.2606,-1.47274 -6.0606,-3.27274 z M 928.16532,187.4932 c -2.78893,-3.36047 -0.37829,-3.82154 4.30419,-0.82323 l 4.38922,2.81053 -3.50341,0.0224 c -1.92687,0.012 -4.26237,-0.89202 -5.19,-2.00976 z M 714.26767,114.56208 c -2.98312,-4.25901 -2.56051,-8.71459 1.15303,-12.15618 2.84446,-2.636158 3.42784,-4.925119 4.90282,-19.236939 1.3312,-12.916808 2.02356,-15.954787 3.37963,-14.829356 0.93799,0.778465 2.20216,1.108399 2.80928,0.733184 0.60711,-0.375213 0.42663,6.323133 -0.40107,14.885215 -1.39886,14.470537 -1.33161,15.761368 0.95458,18.320026 3.14972,3.52511 3.16054,10.19963 0.0212,13.04074 -3.57554,3.23581 -10.30102,2.83883 -12.81942,-0.75669 z"
         id="path329" />
      <path
         style="fill:#705d9f;stroke-width:1.33333"
         d="m 784.33907,351.19209 c 3.0118,-5.68333 8.79616,-16.33333 12.85415,-23.66667 4.05798,-7.33333 10.68781,-19.33333 14.73297,-26.66666 17.35345,-31.45951 25.87348,-46 26.9538,-46 4.17726,0 1.40141,6.25149 -20.72141,46.66666 -5.01774,9.16667 -10.699,19.66667 -12.62506,23.33334 -1.92604,3.66666 -7.26818,13.41666 -11.87144,21.66666 -7.05793,12.64931 -8.87333,15 -11.58428,15 -3.20289,0 -3.19457,-0.038 2.26127,-10.33333 z m 49.18633,9.56136 c 0,-0.93712 7.77463,-15.49136 17.24627,-32.28533 6.64417,-11.78064 6.9459,-12.73242 6.12908,-19.33334 -1.85859,-15.01926 -6.13738,-44.36602 -6.6985,-45.94269 -0.69829,-1.96207 2.79199,-2.27145 3.9779,-0.35261 0.44666,0.72272 2.88686,12.93157 5.42265,27.13076 l 4.61053,25.8167 -11.42528,21.16392 c -6.28389,11.64016 -12.06214,21.93132 -12.84054,22.86924 -1.40214,1.68947 -6.42211,2.41903 -6.42211,0.93335 z m 58.05696,-8.22803 4.80192,-9 -1.63696,-20.07513 -1.63697,-20.07512 3.66756,-6.25821 c 3.41357,-5.82482 6.34102,-7.73992 7.92172,-5.18231 0.36572,0.59175 -0.81054,3.67353 -2.61391,6.84841 l -3.27884,5.77251 2.00835,20.06385 2.00834,20.06386 -4.92612,8.42106 c -3.8061,6.50643 -5.62992,8.42108 -8.02157,8.42108 -3.06983,0 -3.05571,-0.0745 1.70648,-9 z m 27.27149,-3.33333 c -0.003,-6.78333 -0.39932,-20.95616 -0.88142,-31.49519 -0.87324,-19.08934 -0.86612,-19.15625 1.88369,-17.68461 3.18776,1.70604 4.08883,9.91589 4.66612,42.51401 0.33499,18.91566 0.32304,19.00087 -2.66351,19 -2.89448,-8.5e-4 -3.00017,-0.43468 -3.00488,-12.33421 z m 52.33967,-3.33333 c -3.02232,-8.61667 -5.9269,-16.79134 -6.45462,-18.16592 -0.91156,-2.37442 -0.79293,-2.39014 2.37467,-0.31464 3.87917,2.54173 5.35545,5.43614 10.57357,20.73068 4.52647,13.2673 4.54227,13.41654 1.41988,13.41654 -1.88662,0 -3.62665,-3.44481 -7.9135,-15.66666 z M 736.79814,323.58602 c -1.8,-1.8 -3.27274,-4.52726 -3.27274,-6.0606 0,-3.43242 5.67434,-9.33333 8.97498,-9.33333 1.70632,0 4.6543,-4.06813 9.9036,-13.66667 4.11076,-7.51666 11.83202,-21.46666 17.15837,-31 5.32635,-9.53333 12.01888,-21.6561 14.87229,-26.93949 3.65752,-6.77228 5.7637,-9.38525 7.13939,-8.85735 1.07325,0.41184 1.95137,1.27592 1.95137,1.92016 0,1.26708 -22.01021,42.52034 -39.78638,74.57074 -2.88116,5.19472 -3.71544,7.9412 -2.83514,9.33333 0.68604,1.08493 1.25655,3.04988 1.26778,4.36655 0.0278,3.26104 -5.88782,8.9394 -9.31292,8.9394 -1.53334,0 -4.2606,-1.47274 -6.0606,-3.27274 z m -19.84416,-68.15584 c -4.8134,-4.8134 -1.09663,-15.23809 5.43292,-15.23809 1.98686,0 4.90088,-3.92705 11.62518,-15.66667 11.33048,-19.78132 12.963,-21.94086 15.42338,-20.40261 1.54378,0.96519 0.0153,4.474 -7.97098,18.29839 -8.98058,15.54553 -9.85697,17.70624 -9.61696,23.71036 0.18087,4.52414 -0.41868,7.36057 -1.90233,9 -2.68837,2.97061 -10.14776,3.14209 -12.99121,0.29862 z m -18.68631,-68.8681 c -1.14157,-1.62983 -2.06641,-4.17983 -2.05518,-5.66667 0.042,-5.55581 1.7391,-5.80867 9.60818,-1.43143 7.36927,4.0992 7.55933,4.34235 5.59105,7.15246 -2.82261,4.02985 -10.30502,3.99892 -13.14405,-0.0544 z"
         id="path327" />
    </g>
  </g>
</svg>
